<?xml version="1.0" encoding="UTF-8"?>
<!DOCTYPE svg PUBLIC "-//W3C//DTD SVG 1.1//EN" "http://www.w3.org/Graphics/SVG/1.1/DTD/svg11.dtd">
<svg xmlns="http://www.w3.org/2000/svg" version="1.1" width="512px" height="512px" style="shape-rendering:geometricPrecision; text-rendering:geometricPrecision; image-rendering:optimizeQuality; fill-rule:evenodd; clip-rule:evenodd" xmlns:xlink="http://www.w3.org/1999/xlink">
<g><path style="opacity:1" fill="#880000" d="M -0.5,-0.5 C 170.167,-0.5 340.833,-0.5 511.5,-0.5C 511.5,11.8333 511.5,24.1667 511.5,36.5C 510.12,37.7065 508.953,37.3731 508,35.5C 505.899,37.6009 504.232,39.2676 503,40.5C 501.289,40.5607 499.956,39.8941 499,38.5C 498.333,39.1667 497.667,39.8333 497,40.5C 494.816,41.1081 492.816,40.4414 491,38.5C 489,41.1667 487,41.1667 485,38.5C 483.256,39.0362 481.423,39.3696 479.5,39.5C 477.907,37.3397 476.24,37.173 474.5,39C 474.833,39.3333 475.167,39.6667 475.5,40C 472.487,41.6649 469.32,42.8316 466,43.5C 463.904,42.2845 464.071,41.4512 466.5,41C 464.083,39.6997 461.583,39.8663 459,41.5C 456.121,40.2891 453.287,40.2891 450.5,41.5C 448.386,40.9661 446.552,39.9661 445,38.5C 442.888,40.9223 440.888,40.9223 439,38.5C 437.266,39.2489 435.433,39.7489 433.5,40C 435.167,40.3333 436.833,40.6667 438.5,41C 434.207,42.2016 430.707,41.0349 428,37.5C 426.475,37.8881 424.808,37.8881 423,37.5C 420.341,38.9346 417.508,39.9346 414.5,40.5C 413.522,40.0233 412.689,39.3567 412,38.5C 409.46,39.8765 407.46,39.2098 406,36.5C 403.392,37.299 400.726,38.299 398,39.5C 394.616,39.0238 391.616,37.6905 389,35.5C 388.167,36.3333 387.333,37.1667 386.5,38C 387.893,40.1781 389.56,41.1781 391.5,41C 388.405,41.3129 385.405,40.8129 382.5,39.5C 379.768,41.4083 376.935,42.0749 374,41.5C 373.311,42.3567 372.478,43.0233 371.5,43.5C 371.219,41.3433 369.719,39.6766 367,38.5C 366.333,39.1667 365.667,39.8333 365,40.5C 361.508,37.5354 357.841,37.2021 354,39.5C 352.441,38.9706 350.941,38.304 349.5,37.5C 347.028,39.3479 344.861,39.3479 343,37.5C 340,39.1667 337,40.8333 334,42.5C 330.293,41.2321 326.626,40.2321 323,39.5C 321.234,40.5017 319.567,40.1684 318,38.5C 316.316,40.0656 314.316,41.0656 312,41.5C 308.729,40.7107 305.395,39.7107 302,38.5C 300.739,38.7591 299.739,39.4258 299,40.5C 298.311,39.6433 297.478,38.9767 296.5,38.5C 294.358,39.6005 292.192,40.6005 290,41.5C 285.077,36.9175 279.911,36.9175 274.5,41.5C 272.171,39.6727 269.838,38.6727 267.5,38.5C 265.054,39.9828 265.388,41.1495 268.5,42C 265.402,42.2713 262.568,41.4379 260,39.5C 255.556,42.0082 255.389,41.5082 259.5,38C 259,37.5 258.5,37 258,36.5C 256.883,38.1243 255.383,39.1243 253.5,39.5C 249.869,39.5638 246.369,39.2304 243,38.5C 241.128,39.0682 239.295,39.7349 237.5,40.5C 236.522,40.0233 235.689,39.3567 235,38.5C 234.667,38.8333 234.333,39.1667 234,39.5C 229.416,36.4777 225.416,37.1443 222,41.5C 219.457,40.1236 219.291,38.957 221.5,38C 219.729,35.8865 218.229,36.0532 217,38.5C 216,37.8333 215,37.1667 214,36.5C 208.222,38.6994 202.555,40.366 197,41.5C 194.524,39.1845 192.191,39.5178 190,42.5C 188,41.1667 186,39.8333 184,38.5C 182.442,40.7676 180.276,41.9343 177.5,42C 179.246,42.4709 180.913,43.1376 182.5,44C 181.584,44.3742 180.75,44.8742 180,45.5C 178.829,44.1068 177.329,43.2735 175.5,43C 176.604,41.8687 176.271,41.0354 174.5,40.5C 170.881,43.3515 167.714,43.0182 165,39.5C 162.302,42.863 159.636,43.1963 157,40.5C 155.149,42.7811 153.482,42.7811 152,40.5C 150.249,41.1737 148.583,41.507 147,41.5C 146.333,40.8333 145.667,40.1667 145,39.5C 140.669,39.3124 136.669,39.9791 133,41.5C 132.147,39.8753 131.147,39.5419 130,40.5C 127.577,38.0062 125.244,38.0062 123,40.5C 119.471,37.8573 115.971,37.1906 112.5,38.5C 111.086,37.376 109.586,36.376 108,35.5C 106.488,36.2567 105.154,37.2567 104,38.5C 102.927,37.7203 101.76,37.887 100.5,39C 102.929,39.4512 103.096,40.2845 101,41.5C 100,40.5 99,39.5 98,38.5C 94.9373,39.705 91.7707,40.705 88.5,41.5C 86.1089,40.3058 83.7756,39.3058 81.5,38.5C 77.7305,41.3193 73.8971,40.9859 70,37.5C 68.0886,37.7451 66.0886,37.7451 64,37.5C 62.0803,40.438 59.5803,41.1047 56.5,39.5C 54.0038,40.5804 51.6705,41.9138 49.5,43.5C 47.1716,42.7827 45.0049,41.7827 43,40.5C 41.3511,41.8977 40.0178,41.5644 39,39.5C 35.2459,39.5312 31.5793,39.8646 28,40.5C 24.7015,38.1353 21.3681,38.1353 18,40.5C 17.3333,39.8333 16.6667,39.1667 16,38.5C 13.0225,39.9037 10.0225,40.2371 7,39.5C 4.80641,42.9662 2.30641,43.2995 -0.5,40.5C -0.5,26.8333 -0.5,13.1667 -0.5,-0.5 Z"/></g>
<g><path style="opacity:1" fill="#8c0000" d="M 511.5,36.5 C 511.5,53.1667 511.5,69.8333 511.5,86.5C 508.925,85.2716 506.592,83.6049 504.5,81.5C 500.687,82.874 501.02,83.7074 505.5,84C 502.943,85.1186 500.443,85.2853 498,84.5C 496.172,86.8073 494.506,86.474 493,83.5C 492.667,83.8333 492.333,84.1667 492,84.5C 489.888,82.0777 487.888,82.0777 486,84.5C 484.518,82.2189 482.851,82.2189 481,84.5C 477.659,82.3285 473.992,80.9952 470,80.5C 467.033,81.7346 463.7,83.068 460,84.5C 457.6,82.4362 455.433,82.4362 453.5,84.5C 451.19,82.1005 448.69,80.7672 446,80.5C 442.321,81.8851 438.488,82.7184 434.5,83C 436.901,83.805 436.734,84.6383 434,85.5C 431.333,84.1667 428.667,84.1667 426,85.5C 423.266,84.6383 423.099,83.805 425.5,83C 425,82.5 424.5,82 424,81.5C 422.5,83 421,84.5 419.5,86C 417.193,86.3091 415.026,87.1424 413,88.5C 410.213,86.4735 408.547,84.1402 408,81.5C 404.818,82.9147 401.818,82.5814 399,80.5C 396.128,82.6314 392.962,84.2981 389.5,85.5C 386.561,84.2054 384.061,84.872 382,87.5C 379.974,84.7622 377.474,84.0955 374.5,85.5C 371.407,82.6007 368.24,82.2674 365,84.5C 362.661,81.8951 360.328,81.5618 358,83.5C 355.684,82.8607 353.184,82.8607 350.5,83.5C 348.813,83.2395 347.313,82.5728 346,81.5C 344.247,82.627 342.413,83.627 340.5,84.5C 336.969,83.3014 333.469,82.3014 330,81.5C 328,84.1667 326,84.1667 324,81.5C 323.311,82.3567 322.478,83.0233 321.5,83.5C 320.389,82.3887 319.055,81.722 317.5,81.5C 314.416,81.881 311.416,82.5476 308.5,83.5C 306.5,82.5 304.5,81.5 302.5,80.5C 302.511,81.4415 302.011,82.1081 301,82.5C 299.278,82.3893 299.112,81.8893 300.5,81C 297.013,80.2793 293.847,81.446 291,84.5C 288.903,84.3062 286.737,84.3062 284.5,84.5C 281.432,82.6407 278.598,82.6407 276,84.5C 275.213,83.2893 274.546,82.2893 274,81.5C 273.454,82.2893 272.787,83.2893 272,84.5C 269.333,80.5 266.667,80.5 264,84.5C 257.706,83.7932 251.54,83.7932 245.5,84.5C 245.238,86.1322 246.238,87.2988 248.5,88C 247.584,88.2784 246.918,88.7784 246.5,89.5C 243.293,88.8208 240.293,87.6541 237.5,86C 232.833,85.3333 228.167,85.3333 223.5,86C 221.595,87.4213 219.595,88.588 217.5,89.5C 215.175,85.5754 211.675,83.242 207,82.5C 205.488,83.2567 204.154,84.2567 203,85.5C 202.333,84.8333 201.667,84.1667 201,83.5C 199.434,82.9394 198.101,83.6061 197,85.5C 195.745,83.1466 194.078,82.4799 192,83.5C 189.703,81.579 187.703,81.579 186,83.5C 185,82.5 184,81.5 183,80.5C 180.218,84.5833 176.885,85.25 173,82.5C 171.333,83.1667 169.667,83.8333 168,84.5C 165.392,83.701 162.726,82.701 160,81.5C 158.333,82.8333 156.667,82.8333 155,81.5C 154.196,82.8045 153.029,83.4712 151.5,83.5C 148.59,84.0092 145.756,83.3425 143,81.5C 141.34,81.3241 139.674,81.9907 138,83.5C 134.568,81.1446 131.568,81.8113 129,85.5C 127.225,82.9557 125.392,82.9557 123.5,85.5C 119.973,85.4033 116.473,84.4033 113,82.5C 111.933,83.1905 110.766,83.6905 109.5,84C 109.908,86.8614 109.075,87.0281 107,84.5C 104.956,85.0059 102.956,85.3393 101,85.5C 98.6839,85.0656 96.6839,84.0656 95,82.5C 93.2723,84.1944 93.7723,85.3611 96.5,86C 94.2626,87.8562 92.4293,87.3562 91,84.5C 89.4279,86.5894 87.5945,86.5894 85.5,84.5C 84.0944,85.6682 82.9277,85.3348 82,83.5C 79.5769,85.9938 77.2436,85.9938 75,83.5C 72.5801,84.4881 70.2467,84.1548 68,82.5C 65.0376,84.1463 61.7043,85.1463 58,85.5C 55.1228,82.5125 52.1228,82.1792 49,84.5C 48.1667,83.6667 47.3333,82.8333 46.5,82C 45.175,82.1484 44.0084,81.9817 43,81.5C 38.2896,82.8972 33.623,84.5638 29,86.5C 25.9802,85.9677 22.9802,84.6344 20,82.5C 17.8495,82.2745 15.6828,82.9412 13.5,84.5C 9.02626,84.2415 4.35959,83.5748 -0.5,82.5C -0.5,68.5 -0.5,54.5 -0.5,40.5C 2.30641,43.2995 4.80641,42.9662 7,39.5C 10.0225,40.2371 13.0225,39.9037 16,38.5C 16.6667,39.1667 17.3333,39.8333 18,40.5C 21.3681,38.1353 24.7015,38.1353 28,40.5C 31.5793,39.8646 35.2459,39.5312 39,39.5C 40.0178,41.5644 41.3511,41.8977 43,40.5C 45.0049,41.7827 47.1716,42.7827 49.5,43.5C 51.6705,41.9138 54.0038,40.5804 56.5,39.5C 59.5803,41.1047 62.0803,40.438 64,37.5C 66.0886,37.7451 68.0886,37.7451 70,37.5C 73.8971,40.9859 77.7305,41.3193 81.5,38.5C 83.7756,39.3058 86.1089,40.3058 88.5,41.5C 91.7707,40.705 94.9373,39.705 98,38.5C 99,39.5 100,40.5 101,41.5C 103.096,40.2845 102.929,39.4512 100.5,39C 101.76,37.887 102.927,37.7203 104,38.5C 105.154,37.2567 106.488,36.2567 108,35.5C 109.586,36.376 111.086,37.376 112.5,38.5C 115.971,37.1906 119.471,37.8573 123,40.5C 125.244,38.0062 127.577,38.0062 130,40.5C 131.147,39.5419 132.147,39.8753 133,41.5C 136.669,39.9791 140.669,39.3124 145,39.5C 145.667,40.1667 146.333,40.8333 147,41.5C 148.583,41.507 150.249,41.1737 152,40.5C 153.482,42.7811 155.149,42.7811 157,40.5C 159.636,43.1963 162.302,42.863 165,39.5C 167.714,43.0182 170.881,43.3515 174.5,40.5C 176.271,41.0354 176.604,41.8687 175.5,43C 177.329,43.2735 178.829,44.1068 180,45.5C 180.75,44.8742 181.584,44.3742 182.5,44C 180.913,43.1376 179.246,42.4709 177.5,42C 180.276,41.9343 182.442,40.7676 184,38.5C 186,39.8333 188,41.1667 190,42.5C 192.191,39.5178 194.524,39.1845 197,41.5C 202.555,40.366 208.222,38.6994 214,36.5C 215,37.1667 216,37.8333 217,38.5C 218.229,36.0532 219.729,35.8865 221.5,38C 219.291,38.957 219.457,40.1236 222,41.5C 225.416,37.1443 229.416,36.4777 234,39.5C 234.333,39.1667 234.667,38.8333 235,38.5C 235.689,39.3567 236.522,40.0233 237.5,40.5C 239.295,39.7349 241.128,39.0682 243,38.5C 246.369,39.2304 249.869,39.5638 253.5,39.5C 255.383,39.1243 256.883,38.1243 258,36.5C 258.5,37 259,37.5 259.5,38C 255.389,41.5082 255.556,42.0082 260,39.5C 262.568,41.4379 265.402,42.2713 268.5,42C 265.388,41.1495 265.054,39.9828 267.5,38.5C 269.838,38.6727 272.171,39.6727 274.5,41.5C 279.911,36.9175 285.077,36.9175 290,41.5C 292.192,40.6005 294.358,39.6005 296.5,38.5C 297.478,38.9767 298.311,39.6433 299,40.5C 299.739,39.4258 300.739,38.7591 302,38.5C 305.395,39.7107 308.729,40.7107 312,41.5C 314.316,41.0656 316.316,40.0656 318,38.5C 319.567,40.1684 321.234,40.5017 323,39.5C 326.626,40.2321 330.293,41.2321 334,42.5C 337,40.8333 340,39.1667 343,37.5C 344.861,39.3479 347.028,39.3479 349.5,37.5C 350.941,38.304 352.441,38.9706 354,39.5C 357.841,37.2021 361.508,37.5354 365,40.5C 365.667,39.8333 366.333,39.1667 367,38.5C 369.719,39.6766 371.219,41.3433 371.5,43.5C 372.478,43.0233 373.311,42.3567 374,41.5C 376.935,42.0749 379.768,41.4083 382.5,39.5C 385.405,40.8129 388.405,41.3129 391.5,41C 389.56,41.1781 387.893,40.1781 386.5,38C 387.333,37.1667 388.167,36.3333 389,35.5C 391.616,37.6905 394.616,39.0238 398,39.5C 400.726,38.299 403.392,37.299 406,36.5C 407.46,39.2098 409.46,39.8765 412,38.5C 412.689,39.3567 413.522,40.0233 414.5,40.5C 417.508,39.9346 420.341,38.9346 423,37.5C 424.808,37.8881 426.475,37.8881 428,37.5C 430.707,41.0349 434.207,42.2016 438.5,41C 436.833,40.6667 435.167,40.3333 433.5,40C 435.433,39.7489 437.266,39.2489 439,38.5C 440.888,40.9223 442.888,40.9223 445,38.5C 446.552,39.9661 448.386,40.9661 450.5,41.5C 453.287,40.2891 456.121,40.2891 459,41.5C 461.583,39.8663 464.083,39.6997 466.5,41C 464.071,41.4512 463.904,42.2845 466,43.5C 469.32,42.8316 472.487,41.6649 475.5,40C 475.167,39.6667 474.833,39.3333 474.5,39C 476.24,37.173 477.907,37.3397 479.5,39.5C 481.423,39.3696 483.256,39.0362 485,38.5C 487,41.1667 489,41.1667 491,38.5C 492.816,40.4414 494.816,41.1081 497,40.5C 497.667,39.8333 498.333,39.1667 499,38.5C 499.956,39.8941 501.289,40.5607 503,40.5C 504.232,39.2676 505.899,37.6009 508,35.5C 508.953,37.3731 510.12,37.7065 511.5,36.5 Z"/></g>
<g><path style="opacity:1" fill="#930000" d="M 217.5,89.5 C 209.89,100.841 211.223,111.008 221.5,120C 233.863,125.014 245.863,130.848 257.5,137.5C 259.134,140.238 258.467,142.238 255.5,143.5C 243.039,136.916 230.206,130.916 217,125.5C 213.206,132.402 209.706,139.402 206.5,146.5C 203.041,146.38 199.874,146.046 197,145.5C 196.333,146.167 195.667,146.833 195,147.5C 193.215,146.76 191.382,146.093 189.5,145.5C 187.668,146.248 186.001,147.248 184.5,148.5C 182.958,147.253 181.458,147.253 180,148.5C 178.581,147.54 177.081,146.707 175.5,146C 175.833,145.667 176.167,145.333 176.5,145C 172.887,142.169 169.22,142.002 165.5,144.5C 163.958,143.253 162.458,143.253 161,144.5C 159.27,142.398 157.437,142.565 155.5,145C 156.76,146.113 157.927,146.28 159,145.5C 159.833,146.333 160.667,147.167 161.5,148C 160.551,148.617 159.718,148.451 159,147.5C 157.236,149.259 155.069,149.426 152.5,148C 153.205,146.443 152.539,145.277 150.5,144.5C 149.833,144.833 149.167,145.167 148.5,145.5C 145.954,144.344 143.454,143.344 141,142.5C 139.887,143.711 138.72,143.711 137.5,142.5C 136.186,143.313 135.019,144.313 134,145.5C 131.496,143.353 129.162,143.353 127,145.5C 124.165,146.092 121.498,145.425 119,143.5C 116.907,144.973 115.241,144.64 114,142.5C 110.34,142.985 106.673,144.319 103,146.5C 100.703,146.461 98.3698,146.128 96,145.5C 94.5589,146.26 93.0589,146.926 91.5,147.5C 90.1255,146.289 88.6255,145.289 87,144.5C 82.7271,145.083 78.3938,145.416 74,145.5C 71.904,143.734 69.5707,142.401 67,141.5C 65.6381,142.925 64.1381,143.758 62.5,144C 63.5,145 64.5,146 65.5,147C 65.1667,147.167 64.8333,147.333 64.5,147.5C 62.8067,145.973 60.9734,144.64 59,143.5C 57.1918,143.888 55.5252,143.888 54,143.5C 50.6693,146.711 47.336,146.378 44,142.5C 42.3333,143.167 40.6667,143.833 39,144.5C 38.6667,144.167 38.3333,143.833 38,143.5C 36.9207,145.394 35.5874,145.727 34,144.5C 33.3333,145.167 32.6667,145.833 32,146.5C 29.4101,145.622 27.0768,145.622 25,146.5C 24.3109,145.643 23.4776,144.977 22.5,144.5C 19.5134,145.728 16.5134,145.395 13.5,143.5C 11.7583,145.973 9.92499,145.973 8,143.5C 7.58605,143.957 7.08605,144.291 6.5,144.5C 4.30357,142.591 1.97024,141.925 -0.5,142.5C -0.5,122.5 -0.5,102.5 -0.5,82.5C 4.35959,83.5748 9.02626,84.2415 13.5,84.5C 15.6828,82.9412 17.8495,82.2745 20,82.5C 22.9802,84.6344 25.9802,85.9677 29,86.5C 33.623,84.5638 38.2896,82.8972 43,81.5C 44.0084,81.9817 45.175,82.1484 46.5,82C 47.3333,82.8333 48.1667,83.6667 49,84.5C 52.1228,82.1792 55.1228,82.5125 58,85.5C 61.7043,85.1463 65.0376,84.1463 68,82.5C 70.2467,84.1548 72.5801,84.4881 75,83.5C 77.2436,85.9938 79.5769,85.9938 82,83.5C 82.9277,85.3348 84.0944,85.6682 85.5,84.5C 87.5945,86.5894 89.4279,86.5894 91,84.5C 92.4293,87.3562 94.2626,87.8562 96.5,86C 93.7723,85.3611 93.2723,84.1944 95,82.5C 96.6839,84.0656 98.6839,85.0656 101,85.5C 102.956,85.3393 104.956,85.0059 107,84.5C 109.075,87.0281 109.908,86.8614 109.5,84C 110.766,83.6905 111.933,83.1905 113,82.5C 116.473,84.4033 119.973,85.4033 123.5,85.5C 125.392,82.9557 127.225,82.9557 129,85.5C 131.568,81.8113 134.568,81.1446 138,83.5C 139.674,81.9907 141.34,81.3241 143,81.5C 145.756,83.3425 148.59,84.0092 151.5,83.5C 153.029,83.4712 154.196,82.8045 155,81.5C 156.667,82.8333 158.333,82.8333 160,81.5C 162.726,82.701 165.392,83.701 168,84.5C 169.667,83.8333 171.333,83.1667 173,82.5C 176.885,85.25 180.218,84.5833 183,80.5C 184,81.5 185,82.5 186,83.5C 187.703,81.579 189.703,81.579 192,83.5C 194.078,82.4799 195.745,83.1466 197,85.5C 198.101,83.6061 199.434,82.9394 201,83.5C 201.667,84.1667 202.333,84.8333 203,85.5C 204.154,84.2567 205.488,83.2567 207,82.5C 211.675,83.242 215.175,85.5754 217.5,89.5 Z"/></g>
<g><path style="opacity:1" fill="#920000" d="M 511.5,86.5 C 511.5,106.833 511.5,127.167 511.5,147.5C 506.098,144.657 500.598,143.991 495,145.5C 493.527,145.097 492.194,144.43 491,143.5C 489.333,144.833 487.667,144.833 486,143.5C 482.541,147.798 478.708,148.632 474.5,146C 476.795,145.016 476.461,144.183 473.5,143.5C 472.094,144.668 470.928,144.335 470,142.5C 466.543,141.858 463.21,142.524 460,144.5C 458.333,144.5 456.667,144.5 455,144.5C 454.311,143.643 453.478,142.977 452.5,142.5C 450.851,143.648 449.351,144.981 448,146.5C 444.571,146.271 441.238,146.271 438,146.5C 437.333,147.167 436.667,147.833 436,148.5C 432.565,147.15 429.065,147.483 425.5,149.5C 424.964,146.232 422.631,144.732 418.5,145C 416.109,143.691 416.109,142.691 418.5,142C 417.391,141.362 416.225,140.862 415,140.5C 412.719,141.776 410.719,143.443 409,145.5C 408.333,144.833 407.667,144.167 407,143.5C 405.667,144.833 404.333,144.833 403,143.5C 402.333,144.167 401.667,144.833 401,145.5C 398.808,144.601 396.642,143.601 394.5,142.5C 392.565,142.127 390.732,142.793 389,144.5C 387.715,144.05 386.548,143.383 385.5,142.5C 382.142,143.042 378.809,144.376 375.5,146.5C 373.896,146.061 372.396,145.394 371,144.5C 368.417,145.314 366.084,144.647 364,142.5C 362.127,141.911 360.46,142.578 359,144.5C 354.481,141.168 350.314,141.335 346.5,145C 343.479,145.849 340.479,146.683 337.5,147.5C 309.6,124.381 279.266,105.048 246.5,89.5C 246.918,88.7784 247.584,88.2784 248.5,88C 246.238,87.2988 245.238,86.1322 245.5,84.5C 251.54,83.7932 257.706,83.7932 264,84.5C 266.667,80.5 269.333,80.5 272,84.5C 272.787,83.2893 273.454,82.2893 274,81.5C 274.546,82.2893 275.213,83.2893 276,84.5C 278.598,82.6407 281.432,82.6407 284.5,84.5C 286.737,84.3062 288.903,84.3062 291,84.5C 293.847,81.446 297.013,80.2793 300.5,81C 299.112,81.8893 299.278,82.3893 301,82.5C 302.011,82.1081 302.511,81.4415 302.5,80.5C 304.5,81.5 306.5,82.5 308.5,83.5C 311.416,82.5476 314.416,81.881 317.5,81.5C 319.055,81.722 320.389,82.3887 321.5,83.5C 322.478,83.0233 323.311,82.3567 324,81.5C 326,84.1667 328,84.1667 330,81.5C 333.469,82.3014 336.969,83.3014 340.5,84.5C 342.413,83.627 344.247,82.627 346,81.5C 347.313,82.5728 348.813,83.2395 350.5,83.5C 353.184,82.8607 355.684,82.8607 358,83.5C 360.328,81.5618 362.661,81.8951 365,84.5C 368.24,82.2674 371.407,82.6007 374.5,85.5C 377.474,84.0955 379.974,84.7622 382,87.5C 384.061,84.872 386.561,84.2054 389.5,85.5C 392.962,84.2981 396.128,82.6314 399,80.5C 401.818,82.5814 404.818,82.9147 408,81.5C 408.547,84.1402 410.213,86.4735 413,88.5C 415.026,87.1424 417.193,86.3091 419.5,86C 421,84.5 422.5,83 424,81.5C 424.5,82 425,82.5 425.5,83C 423.099,83.805 423.266,84.6383 426,85.5C 428.667,84.1667 431.333,84.1667 434,85.5C 436.734,84.6383 436.901,83.805 434.5,83C 438.488,82.7184 442.321,81.8851 446,80.5C 448.69,80.7672 451.19,82.1005 453.5,84.5C 455.433,82.4362 457.6,82.4362 460,84.5C 463.7,83.068 467.033,81.7346 470,80.5C 473.992,80.9952 477.659,82.3285 481,84.5C 482.851,82.2189 484.518,82.2189 486,84.5C 487.888,82.0777 489.888,82.0777 492,84.5C 492.333,84.1667 492.667,83.8333 493,83.5C 494.506,86.474 496.172,86.8073 498,84.5C 500.443,85.2853 502.943,85.1186 505.5,84C 501.02,83.7074 500.687,82.874 504.5,81.5C 506.592,83.6049 508.925,85.2716 511.5,86.5 Z"/></g>
<g><path style="opacity:1" fill="#fdf76b" d="M 246.5,89.5 C 279.266,105.048 309.6,124.381 337.5,147.5C 351.865,160.864 365.531,174.864 378.5,189.5C 390.978,205.637 402.644,222.303 413.5,239.5C 421.438,253.71 428.604,268.377 435,283.5C 436.241,290.225 435.407,296.558 432.5,302.5C 429.802,305.517 426.469,307.517 422.5,308.5C 420.571,308.769 418.905,308.269 417.5,307C 417.833,306.667 418.167,306.333 418.5,306C 415.876,305.424 415.209,304.09 416.5,302C 413.067,296.952 410.067,292.785 407.5,289.5C 408.609,288.035 408.109,287.035 406,286.5C 405.667,285.5 405.333,284.5 405,283.5C 403.334,284.34 403.167,283.84 404.5,282C 401.906,280.661 400.406,278.494 400,275.5C 399.667,275.833 399.333,276.167 399,276.5C 398.529,274.754 397.862,273.087 397,271.5C 395.334,272.34 395.167,271.84 396.5,270C 393.437,268.934 391.937,266.767 392,263.5C 390.527,263.132 389.027,263.632 387.5,265C 388.5,265.333 389.5,265.667 390.5,266C 390.167,266.333 389.833,266.667 389.5,267C 392.167,270.667 394.833,274.333 397.5,278C 396.833,278.333 396.167,278.667 395.5,279C 398.988,283.633 401.988,288.633 404.5,294C 402.122,294.974 402.456,295.641 405.5,296C 403.122,296.974 403.456,297.641 406.5,298C 404.122,298.974 404.456,299.641 407.5,300C 405.122,300.974 405.456,301.641 408.5,302C 407.833,302.333 407.167,302.667 406.5,303C 408.359,303.684 410.026,304.684 411.5,306C 410.552,306.483 409.552,306.649 408.5,306.5C 407.167,305.5 405.833,304.5 404.5,303.5C 403.542,302.038 402.376,300.705 401,299.5C 391.986,276.46 380.153,255.126 365.5,235.5C 336.926,194.563 300.926,161.897 257.5,137.5C 245.863,130.848 233.863,125.014 221.5,120C 211.223,111.008 209.89,100.841 217.5,89.5C 219.595,88.588 221.595,87.4213 223.5,86C 228.167,85.3333 232.833,85.3333 237.5,86C 240.293,87.6541 243.293,88.8208 246.5,89.5 Z"/></g>
<g><path style="opacity:1" fill="#fdf76b" d="M 255.5,143.5 C 295.736,166.73 329.736,197.063 357.5,234.5C 371.355,254.556 383.355,275.556 393.5,297.5C 394.928,300.012 395.428,302.678 395,305.5C 391.214,307.31 387.381,308.977 383.5,310.5C 379.979,312.229 376.313,313.562 372.5,314.5C 370.373,313.602 369.206,311.936 369,309.5C 368.667,309.833 368.333,310.167 368,310.5C 366.48,307.618 365.147,304.618 364,301.5C 362.334,302.34 362.167,301.84 363.5,300C 361.277,299.348 360.11,297.848 360,295.5C 359.667,295.833 359.333,296.167 359,296.5C 358.529,294.754 357.862,293.087 357,291.5C 355.334,292.34 355.167,291.84 356.5,290C 353.437,288.934 351.937,286.767 352,283.5C 351.333,284.833 350.667,284.833 350,283.5C 349,281.5 348,279.5 347,277.5C 346.667,277.833 346.333,278.167 346,278.5C 345.138,276.913 344.471,275.246 344,273.5C 343.667,273.833 343.333,274.167 343,274.5C 341.829,272.411 340.496,270.411 339,268.5C 338.667,268.833 338.333,269.167 338,269.5C 337.667,268.167 337.333,266.833 337,265.5C 336.667,265.833 336.333,266.167 336,266.5C 333.369,262.66 330.035,258.66 326,254.5C 325.667,254.833 325.333,255.167 325,255.5C 324.667,254.5 324.333,253.5 324,252.5C 323.667,252.833 323.333,253.167 323,253.5C 322.059,251.228 320.726,249.228 319,247.5C 318.667,247.833 318.333,248.167 318,248.5C 316.956,247.377 316.29,246.044 316,244.5C 315.333,243.167 314.667,243.167 314,244.5C 313,242.833 312,241.167 311,239.5C 310.667,239.833 310.333,240.167 310,240.5C 309.333,239.167 308.667,237.833 308,236.5C 307.586,236.957 307.086,237.291 306.5,237.5C 304.679,236.272 303.679,234.606 303.5,232.5C 302.5,232.5 301.5,232.5 300.5,232.5C 300.587,229.402 300.087,229.068 299,231.5C 297.956,230.377 297.29,229.044 297,227.5C 296.667,228.167 296.333,228.833 296,229.5C 295.333,228.167 294.667,226.833 294,225.5C 292.442,226.345 291.442,225.679 291,223.5C 289.84,225.797 288.84,225.464 288,222.5C 283.935,234.641 279.435,246.641 274.5,258.5C 253.746,263.33 244.912,276.33 248,297.5C 257.977,320.713 274.477,327.213 297.5,317C 314.488,301.638 315.821,285.138 301.5,267.5C 301.948,265.535 302.948,265.202 304.5,266.5C 308.128,269.783 311.128,272.949 313.5,276C 311.122,276.974 311.456,277.641 314.5,278C 314.167,278.333 313.833,278.667 313.5,279C 314.5,280 315.5,281 316.5,282C 314.122,282.974 314.456,283.641 317.5,284C 316.833,284.333 316.167,284.667 315.5,285C 318.249,286.346 318.583,287.68 316.5,289C 319.249,290.346 319.583,291.68 317.5,293C 319.072,295.038 320.072,297.371 320.5,300C 319.167,303.333 319.167,306.667 320.5,310C 317.833,310.667 317.833,311.333 320.5,312C 317.833,312.667 317.833,313.333 320.5,314C 318.602,314.64 318.268,315.973 319.5,318C 319.245,319.326 318.578,320.326 317.5,321C 320.167,321.667 320.167,322.333 317.5,323C 318.093,327.231 317.426,331.397 315.5,335.5C 315.863,336.183 316.196,336.85 316.5,337.5C 308.284,341.353 299.951,345.02 291.5,348.5C 280.177,352.827 268.844,357.16 257.5,361.5C 256.127,361.657 254.793,361.49 253.5,361C 254.167,360.667 254.833,360.333 255.5,360C 252.24,358.391 250.574,356.058 250.5,353C 244.262,341.652 240.928,329.985 240.5,318C 237.833,317.333 237.833,316.667 240.5,316C 237.833,315.333 237.833,314.667 240.5,314C 239.833,313.667 239.167,313.333 238.5,313C 238.231,302.431 238.731,291.931 240,281.5C 239.667,282.167 239.333,282.833 239,283.5C 237.488,282.743 236.154,281.743 235,280.5C 233.883,280.665 232.716,280.998 231.5,281.5C 231.891,280.109 231.058,279.109 229,278.5C 228.667,278.833 228.333,279.167 228,279.5C 227.667,278.167 227.333,276.833 227,275.5C 226.692,276.308 226.192,276.975 225.5,277.5C 223.618,275.758 222.118,273.758 221,271.5C 220.333,272.833 219.667,272.833 219,271.5C 218.667,270.167 218.333,268.833 218,267.5C 216.334,268.34 216.167,267.84 217.5,266C 214.337,263.006 211.837,259.506 210,255.5C 207.223,247.474 203.89,239.807 200,232.5C 199.167,234.667 197.667,236.167 195.5,237C 196.791,239.09 196.124,240.424 193.5,241C 194.791,243.09 194.124,244.424 191.5,245C 191.833,245.333 192.167,245.667 192.5,246C 185.172,262.99 177.839,279.99 170.5,297C 171.167,297.333 171.833,297.667 172.5,298C 172.272,298.399 171.938,298.565 171.5,298.5C 167.002,296.278 164.169,297.611 163,302.5C 155.482,320.863 147.982,339.197 140.5,357.5C 158.498,369.59 174.664,367.257 189,350.5C 198.139,335.333 196.973,321 185.5,307.5C 185.843,305.775 186.843,305.275 188.5,306C 188.167,306.333 187.833,306.667 187.5,307C 189.531,307.632 191.198,308.799 192.5,310.5C 194.723,313.794 197.056,316.96 199.5,320C 198.833,320.333 198.167,320.667 197.5,321C 199.303,322.262 200.636,323.929 201.5,326C 200.786,327.343 201.12,328.676 202.5,330C 201.833,330.333 201.167,330.667 200.5,331C 202.004,332.337 203.004,334.004 203.5,336C 203.121,343.795 203.121,351.128 203.5,358C 200.833,358.667 200.833,359.333 203.5,360C 202.833,360.333 202.167,360.667 201.5,361C 201.833,362.667 202.167,364.333 202.5,366C 200.699,366.317 200.366,366.984 201.5,368C 200.297,373.48 198.63,378.813 196.5,384C 197.416,384.278 198.082,384.778 198.5,385.5C 170.54,397.143 142.54,408.81 114.5,420.5C 107.594,423.12 100.594,425.453 93.5,427.5C 99.605,409.956 106.272,392.622 113.5,375.5C 123.977,351.187 133.977,326.52 143.5,301.5C 152.667,280.481 161.334,259.147 169.5,237.5C 176.923,221.586 183.589,205.253 189.5,188.5C 195.941,174.851 201.608,160.851 206.5,146.5C 209.706,139.402 213.206,132.402 217,125.5C 230.206,130.916 243.039,136.916 255.5,143.5 Z"/></g>
<g><path style="opacity:1" fill="#980000" d="M 206.5,146.5 C 201.608,160.851 195.941,174.851 189.5,188.5C 184.716,188.407 179.716,187.741 174.5,186.5C 170.687,187.874 171.02,188.707 175.5,189C 173.112,189.303 170.945,190.137 169,191.5C 166.123,188.513 163.123,188.179 160,190.5C 159.586,190.043 159.086,189.709 158.5,189.5C 156.751,192.127 155.084,192.127 153.5,189.5C 155.748,188.676 155.914,187.676 154,186.5C 153.311,187.357 152.478,188.023 151.5,188.5C 149.929,187.691 148.262,187.357 146.5,187.5C 146.719,188.675 146.386,189.675 145.5,190.5C 144.667,189.5 143.833,188.5 143,187.5C 141.084,190.033 139.084,190.033 137,187.5C 133.339,190.797 130.006,190.797 127,187.5C 126.692,188.308 126.192,188.975 125.5,189.5C 122.833,188.833 120.167,188.167 117.5,187.5C 117.678,188.956 116.844,190.289 115,191.5C 113.667,190.167 112.333,188.833 111,187.5C 108.06,189.416 104.894,189.416 101.5,187.5C 100.914,187.709 100.414,188.043 100,188.5C 97.595,187.726 95.095,187.226 92.5,187C 95.3713,186.882 98.038,186.216 100.5,185C 99.8333,184.833 99.1667,184.667 98.5,184.5C 96.4624,185.634 94.4624,185.634 92.5,184.5C 89.5386,185.183 89.2053,186.016 91.5,187C 88.9158,189.367 86.2492,189.701 83.5,188C 87.5,187.333 87.5,186.667 83.5,186C 84.5,185.667 85.5,185.333 86.5,185C 85.8333,184.833 85.1667,184.667 84.5,184.5C 82.5534,185.277 80.7201,186.277 79,187.5C 77.0934,185.897 75.5934,186.23 74.5,188.5C 70.99,187.231 67.49,187.897 64,190.5C 60.8119,189.833 57.3119,189.499 53.5,189.5C 52.2519,190.04 51.0852,190.707 50,191.5C 48.9326,190.809 47.7659,190.309 46.5,190C 50.5,189.333 50.5,188.667 46.5,188C 50.19,187.576 50.3567,186.742 47,185.5C 45.6764,186.88 44.3431,187.214 43,186.5C 40.6908,187.975 38.5241,189.642 36.5,191.5C 33.8908,190.77 31.2241,190.27 28.5,190C 25.9899,188.484 23.4899,186.984 21,185.5C 19.3209,185.72 17.8209,186.22 16.5,187C 17.5,187.333 18.5,187.667 19.5,188C 17.5594,188.743 15.7261,188.576 14,187.5C 12.2215,189.017 12.7215,189.851 15.5,190C 14.2341,190.309 13.0674,190.809 12,191.5C 10.2609,189.259 8.09423,187.592 5.5,186.5C 4.02408,188.571 2.02408,189.571 -0.5,189.5C -0.5,173.833 -0.5,158.167 -0.5,142.5C 1.97024,141.925 4.30357,142.591 6.5,144.5C 7.08605,144.291 7.58605,143.957 8,143.5C 9.92499,145.973 11.7583,145.973 13.5,143.5C 16.5134,145.395 19.5134,145.728 22.5,144.5C 23.4776,144.977 24.3109,145.643 25,146.5C 27.0768,145.622 29.4101,145.622 32,146.5C 32.6667,145.833 33.3333,145.167 34,144.5C 35.5874,145.727 36.9207,145.394 38,143.5C 38.3333,143.833 38.6667,144.167 39,144.5C 40.6667,143.833 42.3333,143.167 44,142.5C 47.336,146.378 50.6693,146.711 54,143.5C 55.5252,143.888 57.1918,143.888 59,143.5C 60.9734,144.64 62.8067,145.973 64.5,147.5C 64.8333,147.333 65.1667,147.167 65.5,147C 64.5,146 63.5,145 62.5,144C 64.1381,143.758 65.6381,142.925 67,141.5C 69.5707,142.401 71.904,143.734 74,145.5C 78.3938,145.416 82.7271,145.083 87,144.5C 88.6255,145.289 90.1255,146.289 91.5,147.5C 93.0589,146.926 94.5589,146.26 96,145.5C 98.3698,146.128 100.703,146.461 103,146.5C 106.673,144.319 110.34,142.985 114,142.5C 115.241,144.64 116.907,144.973 119,143.5C 121.498,145.425 124.165,146.092 127,145.5C 129.162,143.353 131.496,143.353 134,145.5C 135.019,144.313 136.186,143.313 137.5,142.5C 138.72,143.711 139.887,143.711 141,142.5C 143.454,143.344 145.954,144.344 148.5,145.5C 149.167,145.167 149.833,144.833 150.5,144.5C 152.539,145.277 153.205,146.443 152.5,148C 155.069,149.426 157.236,149.259 159,147.5C 159.718,148.451 160.551,148.617 161.5,148C 160.667,147.167 159.833,146.333 159,145.5C 157.927,146.28 156.76,146.113 155.5,145C 157.437,142.565 159.27,142.398 161,144.5C 162.458,143.253 163.958,143.253 165.5,144.5C 169.22,142.002 172.887,142.169 176.5,145C 176.167,145.333 175.833,145.667 175.5,146C 177.081,146.707 178.581,147.54 180,148.5C 181.458,147.253 182.958,147.253 184.5,148.5C 186.001,147.248 187.668,146.248 189.5,145.5C 191.382,146.093 193.215,146.76 195,147.5C 195.667,146.833 196.333,146.167 197,145.5C 199.874,146.046 203.041,146.38 206.5,146.5 Z"/></g>
<g><path style="opacity:1" fill="#980000" d="M 511.5,147.5 C 511.5,159.833 511.5,172.167 511.5,184.5C 509.193,183.347 506.86,182.18 504.5,181C 505.654,180.086 505.487,179.253 504,178.5C 503,179.833 502,179.833 501,178.5C 499.796,179.471 499.296,180.471 499.5,181.5C 498.522,181.023 497.689,180.357 497,179.5C 494.61,179.76 492.11,179.76 489.5,179.5C 486.097,182.199 482.93,181.866 480,178.5C 479.072,180.335 477.906,180.668 476.5,179.5C 474.172,181.8 472.005,181.8 470,179.5C 464.462,184.37 458.628,184.704 452.5,180.5C 450.41,183.009 448.577,182.675 447,179.5C 445.193,180.861 444.193,182.195 444,183.5C 443.454,182.711 442.787,181.711 442,180.5C 440.249,181.174 438.583,181.507 437,181.5C 435.108,180.87 433.441,179.87 432,178.5C 430.438,178.259 428.938,178.759 427.5,180C 428.96,180.811 429.293,181.645 428.5,182.5C 425.057,181.734 421.557,180.401 418,178.5C 415.398,178.899 412.898,178.899 410.5,178.5C 409.5,179.167 408.5,179.833 407.5,180.5C 405.899,179.835 404.399,179.501 403,179.5C 401.518,181.781 399.851,181.781 398,179.5C 395.753,181.155 393.42,181.488 391,180.5C 390.097,181.701 388.931,182.535 387.5,183C 390.167,183.667 390.167,184.333 387.5,185C 389.795,185.984 389.461,186.817 386.5,187.5C 385.059,186.696 383.559,186.029 382,185.5C 380.296,185.974 378.462,186.141 376.5,186C 377.973,186.71 378.64,187.876 378.5,189.5C 365.531,174.864 351.865,160.864 337.5,147.5C 340.479,146.683 343.479,145.849 346.5,145C 350.314,141.335 354.481,141.168 359,144.5C 360.46,142.578 362.127,141.911 364,142.5C 366.084,144.647 368.417,145.314 371,144.5C 372.396,145.394 373.896,146.061 375.5,146.5C 378.809,144.376 382.142,143.042 385.5,142.5C 386.548,143.383 387.715,144.05 389,144.5C 390.732,142.793 392.565,142.127 394.5,142.5C 396.642,143.601 398.808,144.601 401,145.5C 401.667,144.833 402.333,144.167 403,143.5C 404.333,144.833 405.667,144.833 407,143.5C 407.667,144.167 408.333,144.833 409,145.5C 410.719,143.443 412.719,141.776 415,140.5C 416.225,140.862 417.391,141.362 418.5,142C 416.109,142.691 416.109,143.691 418.5,145C 422.631,144.732 424.964,146.232 425.5,149.5C 429.065,147.483 432.565,147.15 436,148.5C 436.667,147.833 437.333,147.167 438,146.5C 441.238,146.271 444.571,146.271 448,146.5C 449.351,144.981 450.851,143.648 452.5,142.5C 453.478,142.977 454.311,143.643 455,144.5C 456.667,144.5 458.333,144.5 460,144.5C 463.21,142.524 466.543,141.858 470,142.5C 470.928,144.335 472.094,144.668 473.5,143.5C 476.461,144.183 476.795,145.016 474.5,146C 478.708,148.632 482.541,147.798 486,143.5C 487.667,144.833 489.333,144.833 491,143.5C 492.194,144.43 493.527,145.097 495,145.5C 500.598,143.991 506.098,144.657 511.5,147.5 Z"/></g>
<g><path style="opacity:1" fill="#9d130a" d="M 257.5,137.5 C 300.926,161.897 336.926,194.563 365.5,235.5C 364.448,235.649 363.448,235.483 362.5,235C 362.833,234.667 363.167,234.333 363.5,234C 362.5,233.667 361.5,233.333 360.5,233C 361.696,232.346 361.696,231.846 360.5,231.5C 359.145,232.188 358.145,233.188 357.5,234.5C 329.736,197.063 295.736,166.73 255.5,143.5C 258.467,142.238 259.134,140.238 257.5,137.5 Z"/></g>
<g><path style="opacity:1" fill="#b50601" d="M 238.5,165.5 C 258.204,165.706 270.371,175.373 275,194.5C 275.308,212.06 267.141,223.56 250.5,229C 227.912,230.698 214.579,220.364 210.5,198C 211.887,180.177 221.22,169.343 238.5,165.5 Z"/></g>
<g><path style="opacity:1" fill="#9d0000" d="M 511.5,184.5 C 511.5,202.167 511.5,219.833 511.5,237.5C 509.657,238.043 507.99,237.376 506.5,235.5C 502.425,237.274 498.591,237.941 495,237.5C 493.333,236.5 491.667,235.5 490,234.5C 487.888,236.922 485.888,236.922 484,234.5C 483.311,235.357 482.478,236.023 481.5,236.5C 476.976,234.326 473.142,235.326 470,239.5C 468.921,237.606 467.587,237.273 466,238.5C 460.986,233.803 456.152,233.803 451.5,238.5C 449.275,237.899 447.109,237.566 445,237.5C 443.667,238.167 442.333,238.833 441,239.5C 438.103,238.903 435.436,238.903 433,239.5C 431.488,238.743 430.154,237.743 429,236.5C 428,237.833 427,237.833 426,236.5C 422.303,238.361 418.47,238.694 414.5,237.5C 413.702,237.957 413.369,238.624 413.5,239.5C 402.644,222.303 390.978,205.637 378.5,189.5C 378.64,187.876 377.973,186.71 376.5,186C 378.462,186.141 380.296,185.974 382,185.5C 383.559,186.029 385.059,186.696 386.5,187.5C 389.461,186.817 389.795,185.984 387.5,185C 390.167,184.333 390.167,183.667 387.5,183C 388.931,182.535 390.097,181.701 391,180.5C 393.42,181.488 395.753,181.155 398,179.5C 399.851,181.781 401.518,181.781 403,179.5C 404.399,179.501 405.899,179.835 407.5,180.5C 408.5,179.833 409.5,179.167 410.5,178.5C 412.898,178.899 415.398,178.899 418,178.5C 421.557,180.401 425.057,181.734 428.5,182.5C 429.293,181.645 428.96,180.811 427.5,180C 428.938,178.759 430.438,178.259 432,178.5C 433.441,179.87 435.108,180.87 437,181.5C 438.583,181.507 440.249,181.174 442,180.5C 442.787,181.711 443.454,182.711 444,183.5C 444.193,182.195 445.193,180.861 447,179.5C 448.577,182.675 450.41,183.009 452.5,180.5C 458.628,184.704 464.462,184.37 470,179.5C 472.005,181.8 474.172,181.8 476.5,179.5C 477.906,180.668 479.072,180.335 480,178.5C 482.93,181.866 486.097,182.199 489.5,179.5C 492.11,179.76 494.61,179.76 497,179.5C 497.689,180.357 498.522,181.023 499.5,181.5C 499.296,180.471 499.796,179.471 501,178.5C 502,179.833 503,179.833 504,178.5C 505.487,179.253 505.654,180.086 504.5,181C 506.86,182.18 509.193,183.347 511.5,184.5 Z"/></g>
<g><path style="opacity:1" fill="#9d0000" d="M 189.5,188.5 C 183.589,205.253 176.923,221.586 169.5,237.5C 167.806,238.686 166.139,238.519 164.5,237C 165.672,236.581 166.672,235.915 167.5,235C 164.929,234.099 162.596,232.766 160.5,231C 163.167,230.333 163.167,229.667 160.5,229C 161.167,228.667 161.833,228.333 162.5,228C 160.695,227.028 159.028,225.861 157.5,224.5C 153.711,226.649 154.045,228.482 158.5,230C 157.672,230.915 156.672,231.581 155.5,232C 156.833,232.333 158.167,232.667 159.5,233C 157.094,233.306 154.927,234.139 153,235.5C 151.351,234.102 150.018,234.436 149,236.5C 146.593,236.327 144.26,236.327 142,236.5C 140.806,234.475 139.306,234.141 137.5,235.5C 135.349,232.794 133.182,232.46 131,234.5C 127.714,234.839 124.214,234.173 120.5,232.5C 118.627,232.482 118.294,232.982 119.5,234C 118.675,235.688 117.675,235.855 116.5,234.5C 113.579,238.433 110.746,238.433 108,234.5C 105.994,236.002 104.328,235.669 103,233.5C 102.692,234.308 102.192,234.975 101.5,235.5C 101.167,234.833 100.833,234.167 100.5,233.5C 99.1097,235.203 97.6097,235.87 96,235.5C 93.2656,234.638 93.0989,233.805 95.5,233C 94.0267,232.29 93.3601,231.124 93.5,229.5C 95.6547,229.628 97.6547,229.128 99.5,228C 95.2078,228.128 90.8745,228.461 86.5,229C 94.4206,229.52 94.4206,230.353 86.5,231.5C 87.5371,233.681 88.8704,233.681 90.5,231.5C 92.8718,232.363 92.8718,233.529 90.5,235C 94.2691,235.766 94.1024,236.599 90,237.5C 84.8867,234.95 80.22,235.617 76,239.5C 73.8293,237.047 71.3293,236.047 68.5,236.5C 67.5224,236.977 66.6891,237.643 66,238.5C 63.713,237.526 61.713,236.193 60,234.5C 58.6439,235.38 57.1439,235.714 55.5,235.5C 55.719,234.325 55.3857,233.325 54.5,232.5C 52.6441,233.276 51.3107,234.609 50.5,236.5C 49.4805,235.313 48.3139,234.313 47,233.5C 44.5787,235.594 41.912,237.26 39,238.5C 36.8669,237.745 35.2002,236.412 34,234.5C 32.5124,236.82 30.6791,236.987 28.5,235C 27.6721,234.085 26.6721,233.419 25.5,233C 27.9288,232.549 28.0955,231.715 26,230.5C 23.7328,231.935 21.7328,231.602 20,229.5C 19.5,230 19,230.5 18.5,231C 20.087,231.862 21.7536,232.529 23.5,233C 20.0569,233.221 19.7236,234.221 22.5,236C 21.2513,237.824 20.0847,237.657 19,235.5C 16.7309,238.054 14.3975,238.054 12,235.5C 11.3333,236.167 10.6667,236.833 10,237.5C 8.34031,237.676 6.67365,237.009 5,235.5C 3.01054,235.049 1.17721,235.715 -0.5,237.5C -0.5,221.5 -0.5,205.5 -0.5,189.5C 2.02408,189.571 4.02408,188.571 5.5,186.5C 8.09423,187.592 10.2609,189.259 12,191.5C 13.0674,190.809 14.2341,190.309 15.5,190C 12.7215,189.851 12.2215,189.017 14,187.5C 15.7261,188.576 17.5594,188.743 19.5,188C 18.5,187.667 17.5,187.333 16.5,187C 17.8209,186.22 19.3209,185.72 21,185.5C 23.4899,186.984 25.9899,188.484 28.5,190C 31.2241,190.27 33.8908,190.77 36.5,191.5C 38.5241,189.642 40.6908,187.975 43,186.5C 44.3431,187.214 45.6764,186.88 47,185.5C 50.3567,186.742 50.19,187.576 46.5,188C 50.5,188.667 50.5,189.333 46.5,190C 47.7659,190.309 48.9326,190.809 50,191.5C 51.0852,190.707 52.2519,190.04 53.5,189.5C 57.3119,189.499 60.8119,189.833 64,190.5C 67.49,187.897 70.99,187.231 74.5,188.5C 75.5934,186.23 77.0934,185.897 79,187.5C 80.7201,186.277 82.5534,185.277 84.5,184.5C 85.1667,184.667 85.8333,184.833 86.5,185C 85.5,185.333 84.5,185.667 83.5,186C 87.5,186.667 87.5,187.333 83.5,188C 86.2492,189.701 88.9158,189.367 91.5,187C 89.2053,186.016 89.5386,185.183 92.5,184.5C 94.4624,185.634 96.4624,185.634 98.5,184.5C 99.1667,184.667 99.8333,184.833 100.5,185C 98.038,186.216 95.3713,186.882 92.5,187C 95.095,187.226 97.595,187.726 100,188.5C 100.414,188.043 100.914,187.709 101.5,187.5C 104.894,189.416 108.06,189.416 111,187.5C 112.333,188.833 113.667,190.167 115,191.5C 116.844,190.289 117.678,188.956 117.5,187.5C 120.167,188.167 122.833,188.833 125.5,189.5C 126.192,188.975 126.692,188.308 127,187.5C 130.006,190.797 133.339,190.797 137,187.5C 139.084,190.033 141.084,190.033 143,187.5C 143.833,188.5 144.667,189.5 145.5,190.5C 146.386,189.675 146.719,188.675 146.5,187.5C 148.262,187.357 149.929,187.691 151.5,188.5C 152.478,188.023 153.311,187.357 154,186.5C 155.914,187.676 155.748,188.676 153.5,189.5C 155.084,192.127 156.751,192.127 158.5,189.5C 159.086,189.709 159.586,190.043 160,190.5C 163.123,188.179 166.123,188.513 169,191.5C 170.945,190.137 173.112,189.303 175.5,189C 171.02,188.707 170.687,187.874 174.5,186.5C 179.716,187.741 184.716,188.407 189.5,188.5 Z"/></g>
<g><path style="opacity:1" fill="#fbef6c" d="M 372.5,314.5 C 354.071,322.538 335.404,330.204 316.5,337.5C 316.196,336.85 315.863,336.183 315.5,335.5C 317.426,331.397 318.093,327.231 317.5,323C 320.167,322.333 320.167,321.667 317.5,321C 318.578,320.326 319.245,319.326 319.5,318C 318.268,315.973 318.602,314.64 320.5,314C 317.833,313.333 317.833,312.667 320.5,312C 317.833,311.333 317.833,310.667 320.5,310C 319.167,306.667 319.167,303.333 320.5,300C 320.072,297.371 319.072,295.038 317.5,293C 319.583,291.68 319.249,290.346 316.5,289C 318.583,287.68 318.249,286.346 315.5,285C 316.167,284.667 316.833,284.333 317.5,284C 314.456,283.641 314.122,282.974 316.5,282C 315.5,281 314.5,280 313.5,279C 313.833,278.667 314.167,278.333 314.5,278C 311.456,277.641 311.122,276.974 313.5,276C 311.128,272.949 308.128,269.783 304.5,266.5C 302.948,265.202 301.948,265.535 301.5,267.5C 293.886,260.295 284.886,257.295 274.5,258.5C 279.435,246.641 283.935,234.641 288,222.5C 288.84,225.464 289.84,225.797 291,223.5C 291.442,225.679 292.442,226.345 294,225.5C 294.667,226.833 295.333,228.167 296,229.5C 296.333,228.833 296.667,228.167 297,227.5C 297.29,229.044 297.956,230.377 299,231.5C 300.087,229.068 300.587,229.402 300.5,232.5C 301.5,232.5 302.5,232.5 303.5,232.5C 303.679,234.606 304.679,236.272 306.5,237.5C 307.086,237.291 307.586,236.957 308,236.5C 308.667,237.833 309.333,239.167 310,240.5C 310.333,240.167 310.667,239.833 311,239.5C 312,241.167 313,242.833 314,244.5C 314.667,243.167 315.333,243.167 316,244.5C 316.29,246.044 316.956,247.377 318,248.5C 318.333,248.167 318.667,247.833 319,247.5C 320.726,249.228 322.059,251.228 323,253.5C 323.333,253.167 323.667,252.833 324,252.5C 324.333,253.5 324.667,254.5 325,255.5C 325.333,255.167 325.667,254.833 326,254.5C 330.035,258.66 333.369,262.66 336,266.5C 336.333,266.167 336.667,265.833 337,265.5C 337.333,266.833 337.667,268.167 338,269.5C 338.333,269.167 338.667,268.833 339,268.5C 340.496,270.411 341.829,272.411 343,274.5C 343.333,274.167 343.667,273.833 344,273.5C 344.471,275.246 345.138,276.913 346,278.5C 346.333,278.167 346.667,277.833 347,277.5C 348,279.5 349,281.5 350,283.5C 350.667,284.833 351.333,284.833 352,283.5C 351.937,286.767 353.437,288.934 356.5,290C 355.167,291.84 355.334,292.34 357,291.5C 357.862,293.087 358.529,294.754 359,296.5C 359.333,296.167 359.667,295.833 360,295.5C 360.11,297.848 361.277,299.348 363.5,300C 362.167,301.84 362.334,302.34 364,301.5C 365.147,304.618 366.48,307.618 368,310.5C 368.333,310.167 368.667,309.833 369,309.5C 369.206,311.936 370.373,313.602 372.5,314.5 Z"/></g>
<g><path style="opacity:1" fill="#a40000" d="M 169.5,237.5 C 161.334,259.147 152.667,280.481 143.5,301.5C 141.13,301.427 138.63,301.427 136,301.5C 133.889,300.528 131.722,299.695 129.5,299C 130.5,298.667 131.5,298.333 132.5,298C 133.696,297.346 133.696,296.846 132.5,296.5C 128.716,296.735 124.55,296.735 120,296.5C 118.189,297.078 116.355,297.578 114.5,298C 115.654,298.914 115.487,299.747 114,300.5C 112.045,299.547 110.378,298.213 109,296.5C 108.086,297.654 107.253,297.487 106.5,296C 104.479,295.86 102.645,295.693 101,295.5C 97.6433,296.742 97.81,297.576 101.5,298C 99.1523,298.346 97.3189,299.513 96,301.5C 94.9505,300.483 93.7839,300.316 92.5,301C 91.646,302.022 90.646,302.855 89.5,303.5C 87.3898,303.706 85.3898,302.873 83.5,301C 85.1667,300 86.8333,299 88.5,298C 86.0946,297.852 83.7613,298.352 81.5,299.5C 79.1797,298.238 77.3463,298.905 76,301.5C 75.3333,300.833 74.6667,300.167 74,299.5C 72.6218,301.213 70.9552,302.547 69,303.5C 66.1217,302.311 63.2883,300.978 60.5,299.5C 59.1861,300.313 58.0195,301.313 57,302.5C 55.3333,301.5 53.6667,300.5 52,299.5C 49.939,299.889 47.7723,300.889 45.5,302.5C 43.4451,300.445 41.1117,298.779 38.5,297.5C 35.9982,297.621 33.3315,297.788 30.5,298C 27.7644,299.526 24.9311,299.359 22,297.5C 19,297.833 16,298.167 13,298.5C 11.0528,297.89 9.21943,297.057 7.5,296C 9.39629,294.935 9.56296,294.102 8,293.5C 5.97567,293.8 5.47567,294.633 6.5,296C 5.17635,298.709 3.50969,299.042 1.5,297C 3.70917,296.043 3.5425,294.876 1,293.5C 0.617425,294.056 0.117425,294.389 -0.5,294.5C -0.5,275.5 -0.5,256.5 -0.5,237.5C 1.17721,235.715 3.01054,235.049 5,235.5C 6.67365,237.009 8.34031,237.676 10,237.5C 10.6667,236.833 11.3333,236.167 12,235.5C 14.3975,238.054 16.7309,238.054 19,235.5C 20.0847,237.657 21.2513,237.824 22.5,236C 19.7236,234.221 20.0569,233.221 23.5,233C 21.7536,232.529 20.087,231.862 18.5,231C 19,230.5 19.5,230 20,229.5C 21.7328,231.602 23.7328,231.935 26,230.5C 28.0955,231.715 27.9288,232.549 25.5,233C 26.6721,233.419 27.6721,234.085 28.5,235C 30.6791,236.987 32.5124,236.82 34,234.5C 35.2002,236.412 36.8669,237.745 39,238.5C 41.912,237.26 44.5787,235.594 47,233.5C 48.3139,234.313 49.4805,235.313 50.5,236.5C 51.3107,234.609 52.6441,233.276 54.5,232.5C 55.3857,233.325 55.719,234.325 55.5,235.5C 57.1439,235.714 58.6439,235.38 60,234.5C 61.713,236.193 63.713,237.526 66,238.5C 66.6891,237.643 67.5224,236.977 68.5,236.5C 71.3293,236.047 73.8293,237.047 76,239.5C 80.22,235.617 84.8867,234.95 90,237.5C 94.1024,236.599 94.2691,235.766 90.5,235C 92.8718,233.529 92.8718,232.363 90.5,231.5C 88.8704,233.681 87.5371,233.681 86.5,231.5C 94.4206,230.353 94.4206,229.52 86.5,229C 90.8745,228.461 95.2078,228.128 99.5,228C 97.6547,229.128 95.6547,229.628 93.5,229.5C 93.3601,231.124 94.0267,232.29 95.5,233C 93.0989,233.805 93.2656,234.638 96,235.5C 97.6097,235.87 99.1097,235.203 100.5,233.5C 100.833,234.167 101.167,234.833 101.5,235.5C 102.192,234.975 102.692,234.308 103,233.5C 104.328,235.669 105.994,236.002 108,234.5C 110.746,238.433 113.579,238.433 116.5,234.5C 117.675,235.855 118.675,235.688 119.5,234C 118.294,232.982 118.627,232.482 120.5,232.5C 124.214,234.173 127.714,234.839 131,234.5C 133.182,232.46 135.349,232.794 137.5,235.5C 139.306,234.141 140.806,234.475 142,236.5C 144.26,236.327 146.593,236.327 149,236.5C 150.018,234.436 151.351,234.102 153,235.5C 154.927,234.139 157.094,233.306 159.5,233C 158.167,232.667 156.833,232.333 155.5,232C 156.672,231.581 157.672,230.915 158.5,230C 154.045,228.482 153.711,226.649 157.5,224.5C 159.028,225.861 160.695,227.028 162.5,228C 161.833,228.333 161.167,228.667 160.5,229C 163.167,229.667 163.167,230.333 160.5,231C 162.596,232.766 164.929,234.099 167.5,235C 166.672,235.915 165.672,236.581 164.5,237C 166.139,238.519 167.806,238.686 169.5,237.5 Z"/></g>
<g><path style="opacity:1" fill="#fbef6c" d="M 257.5,361.5 C 253.956,362.789 250.623,364.456 247.5,366.5C 231.088,372.637 214.755,378.971 198.5,385.5C 198.082,384.778 197.416,384.278 196.5,384C 198.63,378.813 200.297,373.48 201.5,368C 200.366,366.984 200.699,366.317 202.5,366C 202.167,364.333 201.833,362.667 201.5,361C 202.167,360.667 202.833,360.333 203.5,360C 200.833,359.333 200.833,358.667 203.5,358C 203.121,351.128 203.121,343.795 203.5,336C 203.004,334.004 202.004,332.337 200.5,331C 201.167,330.667 201.833,330.333 202.5,330C 201.12,328.676 200.786,327.343 201.5,326C 200.636,323.929 199.303,322.262 197.5,321C 198.167,320.667 198.833,320.333 199.5,320C 197.056,316.96 194.723,313.794 192.5,310.5C 191.198,308.799 189.531,307.632 187.5,307C 187.833,306.667 188.167,306.333 188.5,306C 186.843,305.275 185.843,305.775 185.5,307.5C 181.103,303.975 176.437,300.975 171.5,298.5C 171.938,298.565 172.272,298.399 172.5,298C 171.833,297.667 171.167,297.333 170.5,297C 177.839,279.99 185.172,262.99 192.5,246C 192.167,245.667 191.833,245.333 191.5,245C 194.124,244.424 194.791,243.09 193.5,241C 196.124,240.424 196.791,239.09 195.5,237C 197.667,236.167 199.167,234.667 200,232.5C 203.89,239.807 207.223,247.474 210,255.5C 211.837,259.506 214.337,263.006 217.5,266C 216.167,267.84 216.334,268.34 218,267.5C 218.333,268.833 218.667,270.167 219,271.5C 219.667,272.833 220.333,272.833 221,271.5C 222.118,273.758 223.618,275.758 225.5,277.5C 226.192,276.975 226.692,276.308 227,275.5C 227.333,276.833 227.667,278.167 228,279.5C 228.333,279.167 228.667,278.833 229,278.5C 231.058,279.109 231.891,280.109 231.5,281.5C 232.716,280.998 233.883,280.665 235,280.5C 236.154,281.743 237.488,282.743 239,283.5C 239.333,282.833 239.667,282.167 240,281.5C 238.731,291.931 238.231,302.431 238.5,313C 239.167,313.333 239.833,313.667 240.5,314C 237.833,314.667 237.833,315.333 240.5,316C 237.833,316.667 237.833,317.333 240.5,318C 240.928,329.985 244.262,341.652 250.5,353C 250.574,356.058 252.24,358.391 255.5,360C 254.833,360.333 254.167,360.667 253.5,361C 254.793,361.49 256.127,361.657 257.5,361.5 Z"/></g>
<g><path style="opacity:1" fill="#a61209" d="M 365.5,235.5 C 380.153,255.126 391.986,276.46 401,299.5C 402.376,300.705 403.542,302.038 404.5,303.5C 401.498,302.551 398.498,300.385 395.5,297C 394.563,296.308 393.897,296.475 393.5,297.5C 383.355,275.556 371.355,254.556 357.5,234.5C 358.145,233.188 359.145,232.188 360.5,231.5C 361.696,231.846 361.696,232.346 360.5,233C 361.5,233.333 362.5,233.667 363.5,234C 363.167,234.333 362.833,234.667 362.5,235C 363.448,235.483 364.448,235.649 365.5,235.5 Z"/></g>
<g><path style="opacity:1" fill="#a40100" d="M 511.5,237.5 C 511.5,259.167 511.5,280.833 511.5,302.5C 509.583,303.09 507.416,303.09 505,302.5C 504.692,303.308 504.192,303.975 503.5,304.5C 502.41,303.273 501.076,302.44 499.5,302C 500.833,301.333 502.167,300.667 503.5,300C 502.251,298.176 501.085,298.343 500,300.5C 497.485,299.326 494.985,299.659 492.5,301.5C 490.326,299.219 488.326,299.219 486.5,301.5C 483.406,301.137 480.406,299.803 477.5,297.5C 476.522,297.977 475.689,298.643 475,299.5C 471.224,299.566 467.391,299.233 463.5,298.5C 460.092,300.287 456.592,301.954 453,303.5C 448.936,302.415 444.936,301.415 441,300.5C 439.463,300.913 437.796,300.913 436,300.5C 434.923,301.429 433.756,302.096 432.5,302.5C 435.407,296.558 436.241,290.225 435,283.5C 428.604,268.377 421.438,253.71 413.5,239.5C 413.369,238.624 413.702,237.957 414.5,237.5C 418.47,238.694 422.303,238.361 426,236.5C 427,237.833 428,237.833 429,236.5C 430.154,237.743 431.488,238.743 433,239.5C 435.436,238.903 438.103,238.903 441,239.5C 442.333,238.833 443.667,238.167 445,237.5C 447.109,237.566 449.275,237.899 451.5,238.5C 456.152,233.803 460.986,233.803 466,238.5C 467.587,237.273 468.921,237.606 470,239.5C 473.142,235.326 476.976,234.326 481.5,236.5C 482.478,236.023 483.311,235.357 484,234.5C 485.888,236.922 487.888,236.922 490,234.5C 491.667,235.5 493.333,236.5 495,237.5C 498.591,237.941 502.425,237.274 506.5,235.5C 507.99,237.376 509.657,238.043 511.5,237.5 Z"/></g>
<g><path style="opacity:1" fill="#b50601" d="M 301.5,267.5 C 315.821,285.138 314.488,301.638 297.5,317C 274.477,327.213 257.977,320.713 248,297.5C 244.912,276.33 253.746,263.33 274.5,258.5C 284.886,257.295 293.886,260.295 301.5,267.5 Z"/></g>
<g><path style="opacity:1" fill="#faed6c" d="M 422.5,308.5 C 417.552,310.097 412.886,309.431 408.5,306.5C 409.552,306.649 410.552,306.483 411.5,306C 410.026,304.684 408.359,303.684 406.5,303C 407.167,302.667 407.833,302.333 408.5,302C 405.456,301.641 405.122,300.974 407.5,300C 404.456,299.641 404.122,298.974 406.5,298C 403.456,297.641 403.122,296.974 405.5,296C 402.456,295.641 402.122,294.974 404.5,294C 401.988,288.633 398.988,283.633 395.5,279C 396.167,278.667 396.833,278.333 397.5,278C 394.833,274.333 392.167,270.667 389.5,267C 389.833,266.667 390.167,266.333 390.5,266C 389.5,265.667 388.5,265.333 387.5,265C 389.027,263.632 390.527,263.132 392,263.5C 391.937,266.767 393.437,268.934 396.5,270C 395.167,271.84 395.334,272.34 397,271.5C 397.862,273.087 398.529,274.754 399,276.5C 399.333,276.167 399.667,275.833 400,275.5C 400.406,278.494 401.906,280.661 404.5,282C 403.167,283.84 403.334,284.34 405,283.5C 405.333,284.5 405.667,285.5 406,286.5C 408.109,287.035 408.609,288.035 407.5,289.5C 410.067,292.785 413.067,296.952 416.5,302C 415.209,304.09 415.876,305.424 418.5,306C 418.167,306.333 417.833,306.667 417.5,307C 418.905,308.269 420.571,308.769 422.5,308.5 Z"/></g>
<g><path style="opacity:1" fill="#ab0000" d="M 143.5,301.5 C 133.977,326.52 123.977,351.187 113.5,375.5C 113.5,374.5 113.5,373.5 113.5,372.5C 110.728,372.78 108.228,372.113 106,370.5C 105.333,371.167 104.667,371.833 104,372.5C 102.887,371.289 101.72,371.289 100.5,372.5C 99.0878,371.194 97.4211,370.36 95.5,370C 97.8333,369 100.167,368 102.5,367C 103.696,366.346 103.696,365.846 102.5,365.5C 100.386,366.034 98.5522,367.034 97,368.5C 96.4387,367.978 95.772,367.645 95,367.5C 92.8474,369.443 90.5141,370.11 88,369.5C 85.3001,368.147 83.6334,366.48 83,364.5C 82.7474,365.535 81.914,366.535 80.5,367.5C 79.549,366.674 78.549,366.508 77.5,367C 80.2976,368.453 83.2976,369.453 86.5,370C 84.2199,370.233 82.2199,371.066 80.5,372.5C 77.2733,372.345 73.94,372.178 70.5,372C 68.779,370.473 66.779,369.473 64.5,369C 65.5,368.667 66.5,368.333 67.5,368C 68.6956,367.346 68.6956,366.846 67.5,366.5C 65.3349,366.651 63.0016,367.317 60.5,368.5C 59.914,368.291 59.414,367.957 59,367.5C 58.2613,368.574 57.2613,369.241 56,369.5C 54.4675,368.305 52.9675,368.305 51.5,369.5C 50.1861,368.687 49.0195,367.687 48,366.5C 46,369.167 44,369.167 42,366.5C 40.2215,368.017 40.7215,368.851 43.5,369C 42.2341,369.309 41.0674,369.809 40,370.5C 38.6569,369.786 37.3236,370.12 36,371.5C 34,371.5 32,371.5 30,371.5C 27.9659,369.44 25.9659,369.774 24,372.5C 22.082,371.458 20.2487,370.292 18.5,369C 21.2636,367.456 21.0969,366.289 18,365.5C 17.3333,366.167 16.6667,366.833 16,367.5C 14.8668,365.789 13.3668,365.289 11.5,366C 14.028,367.316 14.028,368.483 11.5,369.5C 10.1667,369.167 8.83333,368.833 7.5,368.5C 7.70363,369.529 7.20363,370.529 6,371.5C 3.74123,371.875 1.57456,371.208 -0.5,369.5C -0.5,344.5 -0.5,319.5 -0.5,294.5C 0.117425,294.389 0.617425,294.056 1,293.5C 3.5425,294.876 3.70917,296.043 1.5,297C 3.50969,299.042 5.17635,298.709 6.5,296C 5.47567,294.633 5.97567,293.8 8,293.5C 9.56296,294.102 9.39629,294.935 7.5,296C 9.21943,297.057 11.0528,297.89 13,298.5C 16,298.167 19,297.833 22,297.5C 24.9311,299.359 27.7644,299.526 30.5,298C 33.3315,297.788 35.9982,297.621 38.5,297.5C 41.1117,298.779 43.4451,300.445 45.5,302.5C 47.7723,300.889 49.939,299.889 52,299.5C 53.6667,300.5 55.3333,301.5 57,302.5C 58.0195,301.313 59.1861,300.313 60.5,299.5C 63.2883,300.978 66.1217,302.311 69,303.5C 70.9552,302.547 72.6218,301.213 74,299.5C 74.6667,300.167 75.3333,300.833 76,301.5C 77.3463,298.905 79.1797,298.238 81.5,299.5C 83.7613,298.352 86.0946,297.852 88.5,298C 86.8333,299 85.1667,300 83.5,301C 85.3898,302.873 87.3898,303.706 89.5,303.5C 90.646,302.855 91.646,302.022 92.5,301C 93.7839,300.316 94.9505,300.483 96,301.5C 97.3189,299.513 99.1523,298.346 101.5,298C 97.81,297.576 97.6433,296.742 101,295.5C 102.645,295.693 104.479,295.86 106.5,296C 107.253,297.487 108.086,297.654 109,296.5C 110.378,298.213 112.045,299.547 114,300.5C 115.487,299.747 115.654,298.914 114.5,298C 116.355,297.578 118.189,297.078 120,296.5C 124.55,296.735 128.716,296.735 132.5,296.5C 133.696,296.846 133.696,297.346 132.5,298C 131.5,298.333 130.5,298.667 129.5,299C 131.722,299.695 133.889,300.528 136,301.5C 138.63,301.427 141.13,301.427 143.5,301.5 Z"/></g>
<g><path style="opacity:1" fill="#ac0000" d="M 404.5,303.5 C 405.833,304.5 407.167,305.5 408.5,306.5C 412.886,309.431 417.552,310.097 422.5,308.5C 426.469,307.517 429.802,305.517 432.5,302.5C 433.756,302.096 434.923,301.429 436,300.5C 437.796,300.913 439.463,300.913 441,300.5C 444.936,301.415 448.936,302.415 453,303.5C 456.592,301.954 460.092,300.287 463.5,298.5C 467.391,299.233 471.224,299.566 475,299.5C 475.689,298.643 476.522,297.977 477.5,297.5C 480.406,299.803 483.406,301.137 486.5,301.5C 488.326,299.219 490.326,299.219 492.5,301.5C 494.985,299.659 497.485,299.326 500,300.5C 501.085,298.343 502.251,298.176 503.5,300C 502.167,300.667 500.833,301.333 499.5,302C 501.076,302.44 502.41,303.273 503.5,304.5C 504.192,303.975 504.692,303.308 505,302.5C 507.416,303.09 509.583,303.09 511.5,302.5C 511.5,323.833 511.5,345.167 511.5,366.5C 510.504,366.586 509.671,366.252 509,365.5C 505.989,367 506.489,367.834 510.5,368C 508.324,368.163 506.491,368.996 505,370.5C 502.352,368.303 499.852,368.303 497.5,370.5C 493.943,368.302 490.443,368.635 487,371.5C 484.444,370.781 483.277,369.114 483.5,366.5C 484.552,366.649 485.552,366.483 486.5,366C 480.124,364.106 478.458,363.939 481.5,365.5C 481.64,367.124 480.973,368.29 479.5,369C 480.167,369.333 480.833,369.667 481.5,370C 478.523,371.318 475.69,372.818 473,374.5C 471.833,373.333 470.667,372.167 469.5,371C 471.589,367.877 470.922,367.71 467.5,370.5C 466.205,369.902 464.872,369.402 463.5,369C 464.5,368.667 465.5,368.333 466.5,368C 464.532,366.456 462.365,365.289 460,364.5C 458.221,366.017 458.721,366.851 461.5,367C 458.997,368.22 456.331,368.553 453.5,368C 451.714,368.785 450.214,369.951 449,371.5C 445.021,368.303 440.854,367.636 436.5,369.5C 433.034,368.923 429.701,367.923 426.5,366.5C 423.795,367.129 421.128,367.463 418.5,367.5C 416.885,366.846 415.218,366.346 413.5,366C 414.833,365.667 416.167,365.333 417.5,365C 414.851,364.548 412.351,363.714 410,362.5C 409.072,364.335 407.906,364.668 406.5,363.5C 404.885,364.154 403.218,364.654 401.5,365C 403.901,365.805 403.734,366.638 401,367.5C 399.732,367.384 398.398,367.051 397,366.5C 396.5,367 396,367.5 395.5,368C 398.614,369.08 401.614,369.246 404.5,368.5C 404.5,367.5 404.5,366.5 404.5,365.5C 406.989,365.298 409.323,365.798 411.5,367C 410.5,367.333 409.5,367.667 408.5,368C 409.949,369.117 411.616,369.784 413.5,370C 409.81,370.536 406.644,372.036 404,374.5C 402.333,373.5 400.667,372.5 399,371.5C 396.522,372.447 394.188,372.447 392,371.5C 390.488,372.257 389.154,373.257 388,374.5C 385.446,372.076 382.946,372.076 380.5,374.5C 379.065,372.599 377.398,372.266 375.5,373.5C 374.167,372.5 372.833,371.5 371.5,370.5C 370.252,371.04 369.085,371.707 368,372.5C 366.031,369.58 363.531,368.58 360.5,369.5C 358.443,367.469 356.61,367.469 355,369.5C 353.34,369.676 351.674,369.009 350,367.5C 345.712,370.609 342.212,369.942 339.5,365.5C 335.614,366.588 335.614,367.421 339.5,368C 336.382,368.873 333.382,370.039 330.5,371.5C 328.671,370.718 327.171,371.384 326,373.5C 324.352,372.283 322.519,371.45 320.5,371C 321.833,370.667 323.167,370.333 324.5,370C 322.377,369.185 320.377,368.185 318.5,367C 319.328,366.085 320.328,365.419 321.5,365C 321,364.833 320.5,364.667 320,364.5C 317.851,366.458 315.518,366.791 313,365.5C 311.502,367.614 309.669,368.114 307.5,367C 308.833,368 310.167,369 311.5,370C 309.552,370.983 307.718,372.15 306,373.5C 303.333,371.5 300.667,369.5 298,367.5C 297.5,368 297,368.5 296.5,369C 301.612,371.25 301.779,372.75 297,373.5C 295.649,371.981 294.149,370.648 292.5,369.5C 289.432,371.359 286.598,371.359 284,369.5C 282,369.5 280,369.5 278,369.5C 276.488,370.257 275.154,371.257 274,372.5C 273.333,371.833 272.667,371.167 272,370.5C 269.667,371.5 267.333,372.5 265,373.5C 263.829,372.107 262.329,371.273 260.5,371C 262.044,370.71 263.377,370.044 264.5,369C 263.551,368.383 262.718,368.549 262,369.5C 261.333,368.833 260.667,368.167 260,367.5C 258.992,367.982 257.825,368.148 256.5,368C 256.908,370.861 256.075,371.028 254,368.5C 251.637,369.232 249.137,369.232 246.5,368.5C 246.833,367.833 247.167,367.167 247.5,366.5C 250.623,364.456 253.956,362.789 257.5,361.5C 268.844,357.16 280.177,352.827 291.5,348.5C 305.88,344.901 319.88,340.068 333.5,334C 334.833,333.333 335.833,332.333 336.5,331C 340.656,330.586 344.656,329.586 348.5,328C 353.041,325.299 357.708,322.799 362.5,320.5C 363.167,320.833 363.833,321.167 364.5,321.5C 370.74,318.545 377.074,315.878 383.5,313.5C 383.5,312.5 383.5,311.5 383.5,310.5C 387.381,308.977 391.214,307.31 395,305.5C 395.428,302.678 394.928,300.012 393.5,297.5C 393.897,296.475 394.563,296.308 395.5,297C 398.498,300.385 401.498,302.551 404.5,303.5 Z"/></g>
<g><path style="opacity:1" fill="#b40301" d="M 171.5,298.5 C 176.437,300.975 181.103,303.975 185.5,307.5C 196.973,321 198.139,335.333 189,350.5C 174.664,367.257 158.498,369.59 140.5,357.5C 147.982,339.197 155.482,320.863 163,302.5C 164.169,297.611 167.002,296.278 171.5,298.5 Z"/></g>
<g><path style="opacity:1" fill="#ae1c15" d="M 383.5,310.5 C 383.5,311.5 383.5,312.5 383.5,313.5C 377.074,315.878 370.74,318.545 364.5,321.5C 363.833,321.167 363.167,320.833 362.5,320.5C 357.708,322.799 353.041,325.299 348.5,328C 344.656,329.586 340.656,330.586 336.5,331C 335.833,332.333 334.833,333.333 333.5,334C 319.88,340.068 305.88,344.901 291.5,348.5C 299.951,345.02 308.284,341.353 316.5,337.5C 335.404,330.204 354.071,322.538 372.5,314.5C 376.313,313.562 379.979,312.229 383.5,310.5 Z"/></g>
<g><path style="opacity:1" fill="#b20000" d="M 113.5,375.5 C 106.272,392.622 99.605,409.956 93.5,427.5C 92.448,427.351 91.448,427.517 90.5,428C 94.8073,429.021 95.1406,430.188 91.5,431.5C 89.8333,430.667 88.1667,429.833 86.5,429C 90.5,428.333 90.5,427.667 86.5,427C 88.1096,425.505 89.7763,425.339 91.5,426.5C 92.7388,424.993 92.4054,423.826 90.5,423C 92.9011,422.195 92.7344,421.362 90,420.5C 88.4943,423.474 86.8276,423.807 85,421.5C 82.4124,422.797 79.9124,423.797 77.5,424.5C 74.6991,423.534 71.6991,422.201 68.5,420.5C 66.6171,420.876 65.1171,421.876 64,423.5C 62.9505,422.483 61.7839,422.316 60.5,423C 59.646,424.022 58.646,424.855 57.5,425.5C 56.7592,422.061 54.7592,421.728 51.5,424.5C 50.1861,423.687 49.0195,422.687 48,421.5C 47.3109,422.357 46.4776,423.023 45.5,423.5C 42.6425,420.155 39.8092,419.822 37,422.5C 35.0624,421.14 33.3957,421.473 32,423.5C 30.3333,421.833 28.6667,420.167 27,418.5C 25.3333,420.167 23.6667,421.833 22,423.5C 20.3903,423.87 18.8903,423.203 17.5,421.5C 16.0944,422.668 14.9277,422.335 14,420.5C 12.2988,422.712 10.2988,423.379 8,422.5C 4.95054,424.556 2.11721,424.556 -0.5,422.5C -0.5,404.833 -0.5,387.167 -0.5,369.5C 1.57456,371.208 3.74123,371.875 6,371.5C 7.20363,370.529 7.70363,369.529 7.5,368.5C 8.83333,368.833 10.1667,369.167 11.5,369.5C 14.028,368.483 14.028,367.316 11.5,366C 13.3668,365.289 14.8668,365.789 16,367.5C 16.6667,366.833 17.3333,366.167 18,365.5C 21.0969,366.289 21.2636,367.456 18.5,369C 20.2487,370.292 22.082,371.458 24,372.5C 25.9659,369.774 27.9659,369.44 30,371.5C 32,371.5 34,371.5 36,371.5C 37.3236,370.12 38.6569,369.786 40,370.5C 41.0674,369.809 42.2341,369.309 43.5,369C 40.7215,368.851 40.2215,368.017 42,366.5C 44,369.167 46,369.167 48,366.5C 49.0195,367.687 50.1861,368.687 51.5,369.5C 52.9675,368.305 54.4675,368.305 56,369.5C 57.2613,369.241 58.2613,368.574 59,367.5C 59.414,367.957 59.914,368.291 60.5,368.5C 63.0016,367.317 65.3349,366.651 67.5,366.5C 68.6956,366.846 68.6956,367.346 67.5,368C 66.5,368.333 65.5,368.667 64.5,369C 66.779,369.473 68.779,370.473 70.5,372C 73.94,372.178 77.2733,372.345 80.5,372.5C 82.2199,371.066 84.2199,370.233 86.5,370C 83.2976,369.453 80.2976,368.453 77.5,367C 78.549,366.508 79.549,366.674 80.5,367.5C 81.914,366.535 82.7474,365.535 83,364.5C 83.6334,366.48 85.3001,368.147 88,369.5C 90.5141,370.11 92.8474,369.443 95,367.5C 95.772,367.645 96.4387,367.978 97,368.5C 98.5522,367.034 100.386,366.034 102.5,365.5C 103.696,365.846 103.696,366.346 102.5,367C 100.167,368 97.8333,369 95.5,370C 97.4211,370.36 99.0878,371.194 100.5,372.5C 101.72,371.289 102.887,371.289 104,372.5C 104.667,371.833 105.333,371.167 106,370.5C 108.228,372.113 110.728,372.78 113.5,372.5C 113.5,373.5 113.5,374.5 113.5,375.5 Z"/></g>
<g><path style="opacity:1" fill="#b30000" d="M 511.5,366.5 C 511.5,390.5 511.5,414.5 511.5,438.5C 507.292,437.715 506.958,436.882 510.5,436C 502.5,435.333 502.5,434.667 510.5,434C 501.167,433.333 501.167,432.667 510.5,432C 501.167,431.333 501.167,430.667 510.5,430C 508.167,429.667 505.833,429.333 503.5,429C 506.167,428.333 506.167,427.667 503.5,427C 506.167,426.333 506.167,425.667 503.5,425C 504.76,423.887 505.927,423.72 507,424.5C 507.833,423.667 508.667,422.833 509.5,422C 505.851,420.408 502.351,418.242 499,415.5C 495.778,418.388 492.278,420.888 488.5,423C 491.668,423.582 492.001,424.582 489.5,426C 491.259,426.98 492.926,427.647 494.5,428C 492.179,428.837 489.845,429.17 487.5,429C 488.833,428.333 488.833,427.667 487.5,427C 486.216,426.316 485.049,426.483 484,427.5C 482.806,426.57 481.473,425.903 480,425.5C 477.499,425.189 474.999,425.689 472.5,427C 473.167,427.333 473.833,427.667 474.5,428C 473.377,429.044 472.044,429.71 470.5,430C 476.751,432.178 476.751,433.511 470.5,434C 472.657,435.085 472.824,436.251 471,437.5C 469.829,436.107 468.329,435.273 466.5,435C 467.5,434.667 468.5,434.333 469.5,434C 461.5,433.333 461.5,432.667 469.5,432C 467.5,431.667 465.5,431.333 463.5,431C 467.684,429.709 468.35,427.542 465.5,424.5C 463.633,427.229 462.633,426.896 462.5,423.5C 459.029,423.899 458.696,425.399 461.5,428C 458.134,429.879 454.8,429.879 451.5,428C 453.715,426.609 453.715,424.943 451.5,423C 453.259,422.02 454.926,421.353 456.5,421C 455.646,419.978 454.646,419.145 453.5,418.5C 452.575,419.641 451.741,419.641 451,418.5C 450,419.5 449,420.5 448,421.5C 444.426,417.286 441.593,417.952 439.5,423.5C 441.904,423.455 444.237,423.622 446.5,424C 447.833,425.333 449.167,426.667 450.5,428C 449.07,429.44 447.403,429.774 445.5,429C 446.5,428.667 447.5,428.333 448.5,428C 446.671,427.727 445.171,426.893 444,425.5C 442.417,425.493 440.751,425.826 439,426.5C 438.25,425.874 437.416,425.374 436.5,425C 437.308,424.692 437.975,424.192 438.5,423.5C 437.188,418.579 434.854,417.746 431.5,421C 435.531,423.206 435.364,423.706 431,422.5C 430.5,423 430,423.5 429.5,424C 430.383,427.33 432.383,429.664 435.5,431C 432.833,431.667 432.833,432.333 435.5,433C 432.833,433.667 432.833,434.333 435.5,435C 434.584,435.374 433.75,435.874 433,436.5C 430.266,435.638 430.099,434.805 432.5,434C 429.833,433.333 429.833,432.667 432.5,432C 430.283,430.725 427.949,429.725 425.5,429C 427.116,428.385 428.449,427.385 429.5,426C 426.665,423.332 423.332,421.665 419.5,421C 420.654,420.086 420.487,419.253 419,418.5C 417.243,418.133 415.743,418.966 414.5,421C 416.676,422.677 418.676,424.511 420.5,426.5C 421.478,426.023 422.311,425.357 423,424.5C 425.481,425.149 425.814,426.149 424,427.5C 422.657,426.786 421.324,427.12 420,428.5C 417.912,427.692 415.912,426.692 414,425.5C 412.853,426.458 411.853,426.125 411,424.5C 406.495,426.782 402.495,426.449 399,423.5C 397.457,425.378 395.624,426.878 393.5,428C 395.167,429 396.833,430 398.5,431C 395.944,432.438 393.278,432.438 390.5,431C 395.833,430.333 395.833,429.667 390.5,429C 391.167,428.667 391.833,428.333 392.5,428C 391.034,427.365 389.7,426.531 388.5,425.5C 385.432,426.397 382.932,425.397 381,422.5C 379.383,423.536 379.216,424.703 380.5,426C 378.899,426.273 377.399,426.773 376,427.5C 373.975,425.121 371.475,424.287 368.5,425C 369.34,426.666 368.84,426.833 367,425.5C 366.5,426 366,426.5 365.5,427C 366.551,428.385 367.884,429.385 369.5,430C 367.179,430.837 364.845,431.17 362.5,431C 363.167,430.333 363.833,429.667 364.5,429C 363.333,427.833 362.167,426.667 361,425.5C 359.509,427.004 357.676,427.837 355.5,428C 357.384,428.216 359.051,428.883 360.5,430C 357.833,430.667 357.833,431.333 360.5,432C 359.5,432.333 358.5,432.667 357.5,433C 360.044,434.092 362.711,434.759 365.5,435C 363.109,435.287 360.776,435.787 358.5,436.5C 356.37,436.475 354.37,435.975 352.5,435C 355.167,434.333 355.167,433.667 352.5,433C 353.167,432.667 353.833,432.333 354.5,432C 352.735,430.702 350.901,429.536 349,428.5C 347.467,429.695 345.967,429.695 344.5,428.5C 342.164,430.23 342.164,431.73 344.5,433C 343.584,433.374 342.75,433.874 342,434.5C 340.266,433.751 338.433,433.251 336.5,433C 343.167,432.333 343.167,431.667 336.5,431C 338.167,430.667 339.833,430.333 341.5,430C 338.373,429.608 335.373,428.775 332.5,427.5C 329.712,429.066 327.045,429.233 324.5,428C 326.904,427.492 327.571,426.325 326.5,424.5C 327.665,423.416 328.998,422.583 330.5,422C 333.108,422.725 335.608,423.225 338,423.5C 341.224,422.576 341.724,421.243 339.5,419.5C 338.914,419.709 338.414,420.043 338,420.5C 336.981,419.313 335.814,418.313 334.5,417.5C 330.272,418.14 326.772,420.473 324,424.5C 321.205,421.945 319.038,422.611 317.5,426.5C 315.37,426.475 313.37,425.975 311.5,425C 312.022,424.439 312.355,423.772 312.5,423C 311.465,421.726 310.298,420.56 309,419.5C 307.587,421.414 305.753,422.747 303.5,423.5C 302.614,424.325 302.281,425.325 302.5,426.5C 301.448,426.649 300.448,426.483 299.5,426C 300.337,424.989 300.67,423.822 300.5,422.5C 299.5,422.5 298.5,422.5 297.5,422.5C 298.604,426.971 296.937,428.137 292.5,426C 294.014,424.561 294.347,423.061 293.5,421.5C 289.562,426.982 286.062,426.648 283,420.5C 282.667,420.833 282.333,421.167 282,421.5C 280.899,419.606 279.566,418.939 278,419.5C 277.167,420.333 276.333,421.167 275.5,422C 278.167,423.333 280.833,424.667 283.5,426C 281.728,427.487 279.728,427.82 277.5,427C 278.833,426.667 280.167,426.333 281.5,426C 276.379,425.459 271.713,423.959 267.5,421.5C 264.806,423.527 262.473,425.861 260.5,428.5C 262.991,429.541 262.991,430.374 260.5,431C 262.901,431.805 262.734,432.638 260,433.5C 257.931,432.736 255.764,432.236 253.5,432C 255.5,431.667 257.5,431.333 259.5,431C 257.236,430.764 255.069,430.264 253,429.5C 252.086,430.654 251.253,430.487 250.5,429C 252.974,428.887 254.974,427.887 256.5,426C 255.672,425.085 254.672,424.419 253.5,424C 248.265,425.437 243.098,426.603 238,427.5C 236.176,426.251 236.343,425.085 238.5,424C 237.975,423.308 237.308,422.808 236.5,422.5C 234.851,423.648 233.351,424.981 232,426.5C 230.59,425.213 229.09,424.046 227.5,423C 229.279,423.979 230.945,423.646 232.5,422C 230.714,421.215 229.214,420.049 228,418.5C 226.075,419.88 224.241,421.38 222.5,423C 223.167,423.667 223.833,424.333 224.5,425C 222.945,426.646 221.279,426.979 219.5,426C 219.07,426.92 218.736,427.753 218.5,428.5C 216.224,427.798 213.891,427.965 211.5,429C 216.833,429.667 216.833,430.333 211.5,431C 212.833,431.333 214.167,431.667 215.5,432C 212.974,433.259 210.641,433.259 208.5,432C 209.167,431.667 209.833,431.333 210.5,431C 208.695,430.028 207.028,428.861 205.5,427.5C 201.859,428.812 202.193,429.979 206.5,431C 204.726,431.97 202.893,432.804 201,433.5C 197.627,432.379 194.461,430.879 191.5,429C 198.134,428.177 198.134,427.677 191.5,427.5C 191.5,426.5 191.5,425.5 191.5,424.5C 189.856,424.286 188.356,424.62 187,425.5C 186.333,424.833 185.667,424.167 185,423.5C 183.089,424.445 181.089,424.445 179,423.5C 176.432,423.951 174.098,424.951 172,426.5C 170.874,425.056 169.374,424.39 167.5,424.5C 163.644,426.009 159.811,427.675 156,429.5C 152.903,428.711 152.736,427.544 155.5,426C 153.863,424.049 152.363,424.216 151,426.5C 150.5,426 150,425.5 149.5,425C 150.672,424.581 151.672,423.915 152.5,423C 150.441,421.148 148.274,419.982 146,419.5C 143.174,420.917 143.007,422.417 145.5,424C 141.581,425.385 141.581,426.552 145.5,427.5C 147.121,426.295 148.454,426.461 149.5,428C 146.399,429.333 143.233,429.166 140,427.5C 137.254,428.65 134.421,429.15 131.5,429C 134.167,428.333 134.167,427.667 131.5,427C 132.819,425.372 134.152,425.539 135.5,427.5C 136.308,427.192 136.975,426.692 137.5,426C 134.908,423.474 132.408,423.308 130,425.5C 128.598,423.027 127.098,423.027 125.5,425.5C 124.614,424.675 124.281,423.675 124.5,422.5C 123.5,422.5 122.5,422.5 121.5,422.5C 121.393,424.903 122.393,426.736 124.5,428C 120.5,428.667 120.5,429.333 124.5,430C 121.833,430.667 121.833,431.333 124.5,432C 121.833,432.667 121.833,433.333 124.5,434C 123.5,434.5 122.5,435 121.5,435.5C 119.878,433.561 118.044,433.228 116,434.5C 112.173,433.835 109.006,432.002 106.5,429C 108.675,429.049 110.842,429.549 113,430.5C 115.58,430.524 118.08,430.024 120.5,429C 117.745,427.829 115.079,426.496 112.5,425C 113.253,423.513 114.086,423.346 115,424.5C 116.58,423.574 117.08,422.574 116.5,421.5C 111.282,423.639 105.948,425.472 100.5,427C 103.124,427.576 103.791,428.91 102.5,431C 103.833,431.333 105.167,431.667 106.5,432C 104.919,432.707 103.419,433.54 102,434.5C 101.097,433.299 99.9308,432.465 98.5,432C 101.167,431.333 101.167,430.667 98.5,430C 99.1667,429.667 99.8333,429.333 100.5,429C 97.9644,428.814 95.631,428.314 93.5,427.5C 100.594,425.453 107.594,423.12 114.5,420.5C 121.025,420.381 126.858,418.381 132,414.5C 134.851,415.039 137.351,414.039 139.5,411.5C 175.326,397.451 210.993,383.118 246.5,368.5C 249.137,369.232 251.637,369.232 254,368.5C 256.075,371.028 256.908,370.861 256.5,368C 257.825,368.148 258.992,367.982 260,367.5C 260.667,368.167 261.333,368.833 262,369.5C 262.718,368.549 263.551,368.383 264.5,369C 263.377,370.044 262.044,370.71 260.5,371C 262.329,371.273 263.829,372.107 265,373.5C 267.333,372.5 269.667,371.5 272,370.5C 272.667,371.167 273.333,371.833 274,372.5C 275.154,371.257 276.488,370.257 278,369.5C 280,369.5 282,369.5 284,369.5C 286.598,371.359 289.432,371.359 292.5,369.5C 294.149,370.648 295.649,371.981 297,373.5C 301.779,372.75 301.612,371.25 296.5,369C 297,368.5 297.5,368 298,367.5C 300.667,369.5 303.333,371.5 306,373.5C 307.718,372.15 309.552,370.983 311.5,370C 310.167,369 308.833,368 307.5,367C 309.669,368.114 311.502,367.614 313,365.5C 315.518,366.791 317.851,366.458 320,364.5C 320.5,364.667 321,364.833 321.5,365C 320.328,365.419 319.328,366.085 318.5,367C 320.377,368.185 322.377,369.185 324.5,370C 323.167,370.333 321.833,370.667 320.5,371C 322.519,371.45 324.352,372.283 326,373.5C 327.171,371.384 328.671,370.718 330.5,371.5C 333.382,370.039 336.382,368.873 339.5,368C 335.614,367.421 335.614,366.588 339.5,365.5C 342.212,369.942 345.712,370.609 350,367.5C 351.674,369.009 353.34,369.676 355,369.5C 356.61,367.469 358.443,367.469 360.5,369.5C 363.531,368.58 366.031,369.58 368,372.5C 369.085,371.707 370.252,371.04 371.5,370.5C 372.833,371.5 374.167,372.5 375.5,373.5C 377.398,372.266 379.065,372.599 380.5,374.5C 382.946,372.076 385.446,372.076 388,374.5C 389.154,373.257 390.488,372.257 392,371.5C 394.188,372.447 396.522,372.447 399,371.5C 400.667,372.5 402.333,373.5 404,374.5C 406.644,372.036 409.81,370.536 413.5,370C 411.616,369.784 409.949,369.117 408.5,368C 409.5,367.667 410.5,367.333 411.5,367C 409.323,365.798 406.989,365.298 404.5,365.5C 404.5,366.5 404.5,367.5 404.5,368.5C 401.614,369.246 398.614,369.08 395.5,368C 396,367.5 396.5,367 397,366.5C 398.398,367.051 399.732,367.384 401,367.5C 403.734,366.638 403.901,365.805 401.5,365C 403.218,364.654 404.885,364.154 406.5,363.5C 407.906,364.668 409.072,364.335 410,362.5C 412.351,363.714 414.851,364.548 417.5,365C 416.167,365.333 414.833,365.667 413.5,366C 415.218,366.346 416.885,366.846 418.5,367.5C 421.128,367.463 423.795,367.129 426.5,366.5C 429.701,367.923 433.034,368.923 436.5,369.5C 440.854,367.636 445.021,368.303 449,371.5C 450.214,369.951 451.714,368.785 453.5,368C 456.331,368.553 458.997,368.22 461.5,367C 458.721,366.851 458.221,366.017 460,364.5C 462.365,365.289 464.532,366.456 466.5,368C 465.5,368.333 464.5,368.667 463.5,369C 464.872,369.402 466.205,369.902 467.5,370.5C 470.922,367.71 471.589,367.877 469.5,371C 470.667,372.167 471.833,373.333 473,374.5C 475.69,372.818 478.523,371.318 481.5,370C 480.833,369.667 480.167,369.333 479.5,369C 480.973,368.29 481.64,367.124 481.5,365.5C 478.458,363.939 480.124,364.106 486.5,366C 485.552,366.483 484.552,366.649 483.5,366.5C 483.277,369.114 484.444,370.781 487,371.5C 490.443,368.635 493.943,368.302 497.5,370.5C 499.852,368.303 502.352,368.303 505,370.5C 506.491,368.996 508.324,368.163 510.5,368C 506.489,367.834 505.989,367 509,365.5C 509.671,366.252 510.504,366.586 511.5,366.5 Z"/></g>
<g><path style="opacity:1" fill="#b51b15" d="M 247.5,366.5 C 247.167,367.167 246.833,367.833 246.5,368.5C 210.993,383.118 175.326,397.451 139.5,411.5C 137.351,414.039 134.851,415.039 132,414.5C 126.858,418.381 121.025,420.381 114.5,420.5C 142.54,408.81 170.54,397.143 198.5,385.5C 214.755,378.971 231.088,372.637 247.5,366.5 Z"/></g>
<g><path style="opacity:1" fill="#b90000" d="M 511.5,438.5 C 511.5,453.5 511.5,468.5 511.5,483.5C 509.533,484.632 507.7,484.299 506,482.5C 504.396,483.649 502.73,483.649 501,482.5C 499.51,483.317 498.01,484.15 496.5,485C 497.167,485.333 497.833,485.667 498.5,486C 497.216,486.684 496.049,486.517 495,485.5C 492.28,488.319 489.947,487.986 488,484.5C 486.59,485.787 485.09,486.954 483.5,488C 484.328,488.915 485.328,489.581 486.5,490C 484.854,491.401 483.187,491.568 481.5,490.5C 482.711,489.28 482.711,488.113 481.5,487C 482.167,486.667 482.833,486.333 483.5,486C 482.333,485.5 481.5,484.667 481,483.5C 480.692,484.308 480.192,484.975 479.5,485.5C 478.186,484.687 477.019,483.687 476,482.5C 473.266,483.362 473.099,484.195 475.5,485C 473.159,486.4 470.826,486.9 468.5,486.5C 468.678,485.044 467.844,483.711 466,482.5C 464.605,483.815 463.605,483.481 463,481.5C 462.667,482.167 462.333,482.833 462,483.5C 459.246,481.926 456.913,482.592 455,485.5C 454.333,484.167 453.667,482.833 453,481.5C 451.921,483.394 450.587,483.727 449,482.5C 448.097,483.701 446.931,484.535 445.5,485C 446.672,485.419 447.672,486.085 448.5,487C 447.551,487.617 446.718,487.451 446,486.5C 445.316,487.784 445.483,488.951 446.5,490C 445.269,491.967 444.269,491.801 443.5,489.5C 444.248,483.259 442.248,482.259 437.5,486.5C 437.704,485.471 437.204,484.471 436,483.5C 435,483.833 434,484.167 433,484.5C 432.667,483.833 432.333,483.167 432,482.5C 431.577,483.956 430.744,484.456 429.5,484C 430.654,483.086 430.487,482.253 429,481.5C 427.229,482.304 425.729,483.471 424.5,485C 426.657,486.085 426.824,487.251 425,488.5C 422.565,486.563 422.398,484.73 424.5,483C 422.349,480.979 420.849,481.479 420,484.5C 417.539,483.782 415.039,483.115 412.5,482.5C 411.186,483.313 410.019,484.313 409,485.5C 406.216,482.325 403.382,481.992 400.5,484.5C 399.522,484.023 398.689,483.357 398,482.5C 397.059,484.061 395.892,485.395 394.5,486.5C 394.64,485.431 394.64,484.264 394.5,483C 391.949,483.347 389.449,483.513 387,483.5C 386.333,482.833 385.667,482.167 385,481.5C 383.833,482.667 382.667,483.833 381.5,485C 380.216,485.684 379.049,485.517 378,484.5C 376.604,486.527 374.938,486.86 373,485.5C 370.989,489.002 369.656,489.002 369,485.5C 368.667,486.5 368.333,487.5 368,488.5C 367.333,486.5 366.667,484.5 366,482.5C 365.5,483.667 364.667,484.5 363.5,485C 365.595,485.556 365.762,486.056 364,486.5C 361.729,484.287 359.062,482.621 356,481.5C 353.87,481.587 351.703,481.587 349.5,481.5C 348.167,482.167 346.833,482.833 345.5,483.5C 343.622,482.358 341.788,481.358 340,480.5C 339.097,481.701 337.931,482.535 336.5,483C 337.672,483.419 338.672,484.085 339.5,485C 339.167,485.167 338.833,485.333 338.5,485.5C 337.575,484.359 336.741,484.359 336,485.5C 335.692,484.692 335.192,484.025 334.5,483.5C 332.796,486.431 330.629,486.097 328,482.5C 326.383,483.536 326.216,484.703 327.5,486C 327,486.167 326.5,486.333 326,486.5C 324.549,485.645 323.049,485.478 321.5,486C 322.654,485.086 322.487,484.253 321,483.5C 319.156,484.711 318.322,486.044 318.5,487.5C 317.667,486.5 316.833,485.5 316,484.5C 313.612,485.105 311.279,486.438 309,488.5C 308.581,487.328 307.915,486.328 307,485.5C 305.627,485.404 304.127,485.57 302.5,486C 303.949,484.883 305.616,484.216 307.5,484C 304.931,482.574 302.764,482.741 301,484.5C 300.667,484.167 300.333,483.833 300,483.5C 299.544,484.744 300.044,485.577 301.5,486C 301,486.5 300.5,487 300,487.5C 297.28,484.637 294.447,482.637 291.5,481.5C 287.633,484.217 288.3,485.717 293.5,486C 293,486.5 292.5,487 292,487.5C 290.434,488.061 289.101,487.394 288,485.5C 284.89,486.673 284.723,486.173 287.5,484C 286.083,481.174 284.583,481.007 283,483.5C 280.957,481.479 278.957,481.146 277,482.5C 276.333,481.833 275.667,481.167 275,480.5C 274.333,481.833 273.667,481.833 273,480.5C 271.796,481.471 271.296,482.471 271.5,483.5C 269.602,482.266 267.935,482.599 266.5,484.5C 266.274,481.419 264.608,480.919 261.5,483C 263.929,483.451 264.096,484.285 262,485.5C 258.554,483.61 258.721,482.11 262.5,481C 261.584,480.626 260.75,480.126 260,479.5C 258.442,481.359 256.609,482.859 254.5,484C 255.654,484.914 255.487,485.747 254,486.5C 253.333,483.833 252.667,483.833 252,486.5C 249.81,483.751 248.143,484.085 247,487.5C 245.148,485.77 245.314,484.604 247.5,484C 246.5,483.5 245.5,483 244.5,482.5C 241.993,485.952 239.16,486.286 236,483.5C 234.883,483.665 233.716,483.998 232.5,484.5C 231.452,483.617 230.285,482.95 229,482.5C 227.105,483.689 225.105,484.689 223,485.5C 221.391,484.85 219.891,485.35 218.5,487C 218.833,487.333 219.167,487.667 219.5,488C 218.128,488.402 216.795,488.902 215.5,489.5C 214.5,489.167 213.833,488.5 213.5,487.5C 214.98,486.887 216.313,486.554 217.5,486.5C 215.039,484.619 212.872,484.619 211,486.5C 209.563,484.779 210.063,483.279 212.5,482C 212,481.5 211.5,481 211,480.5C 208.021,481.547 205.188,482.881 202.5,484.5C 202.167,483.833 201.833,483.167 201.5,482.5C 200.719,483.737 199.719,484.737 198.5,485.5C 195.997,485.188 193.831,483.855 192,481.5C 190.331,483.721 188.331,484.055 186,482.5C 183.295,483.664 181.795,485.331 181.5,487.5C 180.167,486.5 178.833,485.5 177.5,484.5C 175.167,484.5 172.833,484.5 170.5,484.5C 169.808,483.975 169.308,483.308 169,482.5C 168.126,484.776 166.459,486.11 164,486.5C 161.6,485.956 159.267,485.289 157,484.5C 156,486.833 154.333,488.5 152,489.5C 151.5,489 151,488.5 150.5,488C 152.044,487.71 153.377,487.044 154.5,486C 152.68,485.021 151.513,483.521 151,481.5C 150.517,482.448 150.351,483.448 150.5,484.5C 148.473,484.662 146.473,484.495 144.5,484C 143.638,481.266 142.805,481.099 142,483.5C 140.417,481.007 138.917,481.174 137.5,484C 138.28,485.073 138.113,486.24 137,487.5C 136.333,486.167 135.667,486.167 135,487.5C 134.333,486.167 133.333,485.167 132,484.5C 131,485.833 130,485.833 129,484.5C 127,485.167 125.667,486.5 125,488.5C 124.1,487.23 122.934,486.23 121.5,485.5C 121.467,484.011 120.967,482.678 120,481.5C 119,481.833 118,482.167 117,482.5C 116.333,479.833 115.667,479.833 115,482.5C 112.667,482.167 110.333,481.833 108,481.5C 107.5,482 107,482.5 106.5,483C 107.833,483.667 109.167,484.333 110.5,485C 107.8,487.405 105.967,486.905 105,483.5C 103.635,487.223 101.968,487.223 100,483.5C 98.513,484.253 98.3463,485.086 99.5,486C 95.5,486.667 95.5,487.333 99.5,488C 97.2091,489.659 95.2091,489.159 93.5,486.5C 94.6882,486.693 96.0215,486.193 97.5,485C 96.0692,484.535 94.9025,483.701 94,482.5C 93,483.5 92,484.5 91,485.5C 90.3333,484.167 89.6667,484.167 89,485.5C 87.3506,482.123 85.3506,481.79 83,484.5C 82,483.833 81,483.167 80,482.5C 78.4345,481.939 77.1011,482.606 76,484.5C 75.6667,483.833 75.3333,483.167 75,482.5C 74,483.833 73,483.833 72,482.5C 71.3333,483.167 70.6667,483.833 70,484.5C 68.057,483.685 66.057,482.685 64,481.5C 61.8777,482.22 61.3777,483.387 62.5,485C 61.0654,484.689 59.7321,484.855 58.5,485.5C 57.7492,484.624 57.2492,483.624 57,482.5C 56.8038,484.286 55.9705,485.619 54.5,486.5C 55.0164,485.242 54.3497,484.242 52.5,483.5C 50.5195,483.557 48.5195,484.057 46.5,485C 46.8333,484.667 47.1667,484.333 47.5,484C 46.3333,482.833 45.1667,481.667 44,480.5C 42.2552,481.956 40.4219,483.289 38.5,484.5C 35.3412,481.672 32.8412,482.339 31,486.5C 29.5629,484.779 30.0629,483.279 32.5,482C 31.6753,480.312 30.6753,480.145 29.5,481.5C 28.5,480.833 27.5,480.167 26.5,479.5C 24.0711,480.855 22.7377,482.522 22.5,484.5C 21.9395,482.623 20.7728,480.623 19,478.5C 18.5,479.667 17.6667,480.5 16.5,481C 18.8776,481.974 18.5443,482.641 15.5,483C 19.9011,483.811 20.2344,484.977 16.5,486.5C 15.4805,485.313 14.3139,484.313 13,483.5C 11.6047,484.43 10.1047,484.43 8.5,483.5C 6.94458,483.722 5.61125,484.389 4.5,485.5C 4.70363,484.471 4.20363,483.471 3,482.5C 1.85453,483.684 0.687867,483.684 -0.5,482.5C -0.5,462.5 -0.5,442.5 -0.5,422.5C 2.11721,424.556 4.95054,424.556 8,422.5C 10.2988,423.379 12.2988,422.712 14,420.5C 14.9277,422.335 16.0944,422.668 17.5,421.5C 18.8903,423.203 20.3903,423.87 22,423.5C 23.6667,421.833 25.3333,420.167 27,418.5C 28.6667,420.167 30.3333,421.833 32,423.5C 33.3957,421.473 35.0624,421.14 37,422.5C 39.8092,419.822 42.6425,420.155 45.5,423.5C 46.4776,423.023 47.3109,422.357 48,421.5C 49.0195,422.687 50.1861,423.687 51.5,424.5C 54.7592,421.728 56.7592,422.061 57.5,425.5C 58.646,424.855 59.646,424.022 60.5,423C 61.7839,422.316 62.9505,422.483 64,423.5C 65.1171,421.876 66.6171,420.876 68.5,420.5C 71.6991,422.201 74.6991,423.534 77.5,424.5C 79.9124,423.797 82.4124,422.797 85,421.5C 86.8276,423.807 88.4943,423.474 90,420.5C 92.7344,421.362 92.9011,422.195 90.5,423C 92.4054,423.826 92.7388,424.993 91.5,426.5C 89.7763,425.339 88.1096,425.505 86.5,427C 90.5,427.667 90.5,428.333 86.5,429C 88.1667,429.833 89.8333,430.667 91.5,431.5C 95.1406,430.188 94.8073,429.021 90.5,428C 91.448,427.517 92.448,427.351 93.5,427.5C 95.631,428.314 97.9644,428.814 100.5,429C 99.8333,429.333 99.1667,429.667 98.5,430C 101.167,430.667 101.167,431.333 98.5,432C 99.9308,432.465 101.097,433.299 102,434.5C 103.419,433.54 104.919,432.707 106.5,432C 105.167,431.667 103.833,431.333 102.5,431C 103.791,428.91 103.124,427.576 100.5,427C 105.948,425.472 111.282,423.639 116.5,421.5C 117.08,422.574 116.58,423.574 115,424.5C 114.086,423.346 113.253,423.513 112.5,425C 115.079,426.496 117.745,427.829 120.5,429C 118.08,430.024 115.58,430.524 113,430.5C 110.842,429.549 108.675,429.049 106.5,429C 109.006,432.002 112.173,433.835 116,434.5C 118.044,433.228 119.878,433.561 121.5,435.5C 122.5,435 123.5,434.5 124.5,434C 121.833,433.333 121.833,432.667 124.5,432C 121.833,431.333 121.833,430.667 124.5,430C 120.5,429.333 120.5,428.667 124.5,428C 122.393,426.736 121.393,424.903 121.5,422.5C 122.5,422.5 123.5,422.5 124.5,422.5C 124.281,423.675 124.614,424.675 125.5,425.5C 127.098,423.027 128.598,423.027 130,425.5C 132.408,423.308 134.908,423.474 137.5,426C 136.975,426.692 136.308,427.192 135.5,427.5C 134.152,425.539 132.819,425.372 131.5,427C 134.167,427.667 134.167,428.333 131.5,429C 134.421,429.15 137.254,428.65 140,427.5C 143.233,429.166 146.399,429.333 149.5,428C 148.454,426.461 147.121,426.295 145.5,427.5C 141.581,426.552 141.581,425.385 145.5,424C 143.007,422.417 143.174,420.917 146,419.5C 148.274,419.982 150.441,421.148 152.5,423C 151.672,423.915 150.672,424.581 149.5,425C 150,425.5 150.5,426 151,426.5C 152.363,424.216 153.863,424.049 155.5,426C 152.736,427.544 152.903,428.711 156,429.5C 159.811,427.675 163.644,426.009 167.5,424.5C 169.374,424.39 170.874,425.056 172,426.5C 174.098,424.951 176.432,423.951 179,423.5C 181.089,424.445 183.089,424.445 185,423.5C 185.667,424.167 186.333,424.833 187,425.5C 188.356,424.62 189.856,424.286 191.5,424.5C 191.5,425.5 191.5,426.5 191.5,427.5C 198.134,427.677 198.134,428.177 191.5,429C 194.461,430.879 197.627,432.379 201,433.5C 202.893,432.804 204.726,431.97 206.5,431C 202.193,429.979 201.859,428.812 205.5,427.5C 207.028,428.861 208.695,430.028 210.5,431C 209.833,431.333 209.167,431.667 208.5,432C 210.641,433.259 212.974,433.259 215.5,432C 214.167,431.667 212.833,431.333 211.5,431C 216.833,430.333 216.833,429.667 211.5,429C 213.891,427.965 216.224,427.798 218.5,428.5C 218.736,427.753 219.07,426.92 219.5,426C 221.279,426.979 222.945,426.646 224.5,425C 223.833,424.333 223.167,423.667 222.5,423C 224.241,421.38 226.075,419.88 228,418.5C 229.214,420.049 230.714,421.215 232.5,422C 230.945,423.646 229.279,423.979 227.5,423C 229.09,424.046 230.59,425.213 232,426.5C 233.351,424.981 234.851,423.648 236.5,422.5C 237.308,422.808 237.975,423.308 238.5,424C 236.343,425.085 236.176,426.251 238,427.5C 243.098,426.603 248.265,425.437 253.5,424C 254.672,424.419 255.672,425.085 256.5,426C 254.974,427.887 252.974,428.887 250.5,429C 251.253,430.487 252.086,430.654 253,429.5C 255.069,430.264 257.236,430.764 259.5,431C 257.5,431.333 255.5,431.667 253.5,432C 255.764,432.236 257.931,432.736 260,433.5C 262.734,432.638 262.901,431.805 260.5,431C 262.991,430.374 262.991,429.541 260.5,428.5C 262.473,425.861 264.806,423.527 267.5,421.5C 271.713,423.959 276.379,425.459 281.5,426C 280.167,426.333 278.833,426.667 277.5,427C 279.728,427.82 281.728,427.487 283.5,426C 280.833,424.667 278.167,423.333 275.5,422C 276.333,421.167 277.167,420.333 278,419.5C 279.566,418.939 280.899,419.606 282,421.5C 282.333,421.167 282.667,420.833 283,420.5C 286.062,426.648 289.562,426.982 293.5,421.5C 294.347,423.061 294.014,424.561 292.5,426C 296.937,428.137 298.604,426.971 297.5,422.5C 298.5,422.5 299.5,422.5 300.5,422.5C 300.67,423.822 300.337,424.989 299.5,426C 300.448,426.483 301.448,426.649 302.5,426.5C 302.281,425.325 302.614,424.325 303.5,423.5C 305.753,422.747 307.587,421.414 309,419.5C 310.298,420.56 311.465,421.726 312.5,423C 312.355,423.772 312.022,424.439 311.5,425C 313.37,425.975 315.37,426.475 317.5,426.5C 319.038,422.611 321.205,421.945 324,424.5C 326.772,420.473 330.272,418.14 334.5,417.5C 335.814,418.313 336.981,419.313 338,420.5C 338.414,420.043 338.914,419.709 339.5,419.5C 341.724,421.243 341.224,422.576 338,423.5C 335.608,423.225 333.108,422.725 330.5,422C 328.998,422.583 327.665,423.416 326.5,424.5C 327.571,426.325 326.904,427.492 324.5,428C 327.045,429.233 329.712,429.066 332.5,427.5C 335.373,428.775 338.373,429.608 341.5,430C 339.833,430.333 338.167,430.667 336.5,431C 343.167,431.667 343.167,432.333 336.5,433C 338.433,433.251 340.266,433.751 342,434.5C 342.75,433.874 343.584,433.374 344.5,433C 342.164,431.73 342.164,430.23 344.5,428.5C 345.967,429.695 347.467,429.695 349,428.5C 350.901,429.536 352.735,430.702 354.5,432C 353.833,432.333 353.167,432.667 352.5,433C 355.167,433.667 355.167,434.333 352.5,435C 354.37,435.975 356.37,436.475 358.5,436.5C 360.776,435.787 363.109,435.287 365.5,435C 362.711,434.759 360.044,434.092 357.5,433C 358.5,432.667 359.5,432.333 360.5,432C 357.833,431.333 357.833,430.667 360.5,430C 359.051,428.883 357.384,428.216 355.5,428C 357.676,427.837 359.509,427.004 361,425.5C 362.167,426.667 363.333,427.833 364.5,429C 363.833,429.667 363.167,430.333 362.5,431C 364.845,431.17 367.179,430.837 369.5,430C 367.884,429.385 366.551,428.385 365.5,427C 366,426.5 366.5,426 367,425.5C 368.84,426.833 369.34,426.666 368.5,425C 371.475,424.287 373.975,425.121 376,427.5C 377.399,426.773 378.899,426.273 380.5,426C 379.216,424.703 379.383,423.536 381,422.5C 382.932,425.397 385.432,426.397 388.5,425.5C 389.7,426.531 391.034,427.365 392.5,428C 391.833,428.333 391.167,428.667 390.5,429C 395.833,429.667 395.833,430.333 390.5,431C 393.278,432.438 395.944,432.438 398.5,431C 396.833,430 395.167,429 393.5,428C 395.624,426.878 397.457,425.378 399,423.5C 402.495,426.449 406.495,426.782 411,424.5C 411.853,426.125 412.853,426.458 414,425.5C 415.912,426.692 417.912,427.692 420,428.5C 421.324,427.12 422.657,426.786 424,427.5C 425.814,426.149 425.481,425.149 423,424.5C 422.311,425.357 421.478,426.023 420.5,426.5C 418.676,424.511 416.676,422.677 414.5,421C 415.743,418.966 417.243,418.133 419,418.5C 420.487,419.253 420.654,420.086 419.5,421C 423.332,421.665 426.665,423.332 429.5,426C 428.449,427.385 427.116,428.385 425.5,429C 427.949,429.725 430.283,430.725 432.5,432C 429.833,432.667 429.833,433.333 432.5,434C 430.099,434.805 430.266,435.638 433,436.5C 433.75,435.874 434.584,435.374 435.5,435C 432.833,434.333 432.833,433.667 435.5,433C 432.833,432.333 432.833,431.667 435.5,431C 432.383,429.664 430.383,427.33 429.5,424C 430,423.5 430.5,423 431,422.5C 435.364,423.706 435.531,423.206 431.5,421C 434.854,417.746 437.188,418.579 438.5,423.5C 437.975,424.192 437.308,424.692 436.5,425C 437.416,425.374 438.25,425.874 439,426.5C 440.751,425.826 442.417,425.493 444,425.5C 445.171,426.893 446.671,427.727 448.5,428C 447.5,428.333 446.5,428.667 445.5,429C 447.403,429.774 449.07,429.44 450.5,428C 449.167,426.667 447.833,425.333 446.5,424C 444.237,423.622 441.904,423.455 439.5,423.5C 441.593,417.952 444.426,417.286 448,421.5C 449,420.5 450,419.5 451,418.5C 451.741,419.641 452.575,419.641 453.5,418.5C 454.646,419.145 455.646,419.978 456.5,421C 454.926,421.353 453.259,422.02 451.5,423C 453.715,424.943 453.715,426.609 451.5,428C 454.8,429.879 458.134,429.879 461.5,428C 458.696,425.399 459.029,423.899 462.5,423.5C 462.633,426.896 463.633,427.229 465.5,424.5C 468.35,427.542 467.684,429.709 463.5,431C 465.5,431.333 467.5,431.667 469.5,432C 461.5,432.667 461.5,433.333 469.5,434C 468.5,434.333 467.5,434.667 466.5,435C 468.329,435.273 469.829,436.107 471,437.5C 472.824,436.251 472.657,435.085 470.5,434C 476.751,433.511 476.751,432.178 470.5,430C 472.044,429.71 473.377,429.044 474.5,428C 473.833,427.667 473.167,427.333 472.5,427C 474.999,425.689 477.499,425.189 480,425.5C 481.473,425.903 482.806,426.57 484,427.5C 485.049,426.483 486.216,426.316 487.5,427C 488.833,427.667 488.833,428.333 487.5,429C 489.845,429.17 492.179,428.837 494.5,428C 492.926,427.647 491.259,426.98 489.5,426C 492.001,424.582 491.668,423.582 488.5,423C 492.278,420.888 495.778,418.388 499,415.5C 502.351,418.242 505.851,420.408 509.5,422C 508.667,422.833 507.833,423.667 507,424.5C 505.927,423.72 504.76,423.887 503.5,425C 506.167,425.667 506.167,426.333 503.5,427C 506.167,427.667 506.167,428.333 503.5,429C 505.833,429.333 508.167,429.667 510.5,430C 501.167,430.667 501.167,431.333 510.5,432C 501.167,432.667 501.167,433.333 510.5,434C 502.5,434.667 502.5,435.333 510.5,436C 506.958,436.882 507.292,437.715 511.5,438.5 Z"/></g>
<g><path style="opacity:1" fill="#be0000" d="M 511.5,483.5 C 511.5,492.833 511.5,502.167 511.5,511.5C 340.833,511.5 170.167,511.5 -0.5,511.5C -0.5,501.833 -0.5,492.167 -0.5,482.5C 0.687867,483.684 1.85453,483.684 3,482.5C 4.20363,483.471 4.70363,484.471 4.5,485.5C 5.61125,484.389 6.94458,483.722 8.5,483.5C 10.1047,484.43 11.6047,484.43 13,483.5C 14.3139,484.313 15.4805,485.313 16.5,486.5C 20.2344,484.977 19.9011,483.811 15.5,483C 18.5443,482.641 18.8776,481.974 16.5,481C 17.6667,480.5 18.5,479.667 19,478.5C 20.7728,480.623 21.9395,482.623 22.5,484.5C 22.7377,482.522 24.0711,480.855 26.5,479.5C 27.5,480.167 28.5,480.833 29.5,481.5C 30.6753,480.145 31.6753,480.312 32.5,482C 30.0629,483.279 29.5629,484.779 31,486.5C 32.8412,482.339 35.3412,481.672 38.5,484.5C 40.4219,483.289 42.2552,481.956 44,480.5C 45.1667,481.667 46.3333,482.833 47.5,484C 47.1667,484.333 46.8333,484.667 46.5,485C 48.5195,484.057 50.5195,483.557 52.5,483.5C 54.3497,484.242 55.0164,485.242 54.5,486.5C 55.9705,485.619 56.8038,484.286 57,482.5C 57.2492,483.624 57.7492,484.624 58.5,485.5C 59.7321,484.855 61.0654,484.689 62.5,485C 61.3777,483.387 61.8777,482.22 64,481.5C 66.057,482.685 68.057,483.685 70,484.5C 70.6667,483.833 71.3333,483.167 72,482.5C 73,483.833 74,483.833 75,482.5C 75.3333,483.167 75.6667,483.833 76,484.5C 77.1011,482.606 78.4345,481.939 80,482.5C 81,483.167 82,483.833 83,484.5C 85.3506,481.79 87.3506,482.123 89,485.5C 89.6667,484.167 90.3333,484.167 91,485.5C 92,484.5 93,483.5 94,482.5C 94.9025,483.701 96.0692,484.535 97.5,485C 96.0215,486.193 94.6882,486.693 93.5,486.5C 95.2091,489.159 97.2091,489.659 99.5,488C 95.5,487.333 95.5,486.667 99.5,486C 98.3463,485.086 98.513,484.253 100,483.5C 101.968,487.223 103.635,487.223 105,483.5C 105.967,486.905 107.8,487.405 110.5,485C 109.167,484.333 107.833,483.667 106.5,483C 107,482.5 107.5,482 108,481.5C 110.333,481.833 112.667,482.167 115,482.5C 115.667,479.833 116.333,479.833 117,482.5C 118,482.167 119,481.833 120,481.5C 120.967,482.678 121.467,484.011 121.5,485.5C 122.934,486.23 124.1,487.23 125,488.5C 125.667,486.5 127,485.167 129,484.5C 130,485.833 131,485.833 132,484.5C 133.333,485.167 134.333,486.167 135,487.5C 135.667,486.167 136.333,486.167 137,487.5C 138.113,486.24 138.28,485.073 137.5,484C 138.917,481.174 140.417,481.007 142,483.5C 142.805,481.099 143.638,481.266 144.5,484C 146.473,484.495 148.473,484.662 150.5,484.5C 150.351,483.448 150.517,482.448 151,481.5C 151.513,483.521 152.68,485.021 154.5,486C 153.377,487.044 152.044,487.71 150.5,488C 151,488.5 151.5,489 152,489.5C 154.333,488.5 156,486.833 157,484.5C 159.267,485.289 161.6,485.956 164,486.5C 166.459,486.11 168.126,484.776 169,482.5C 169.308,483.308 169.808,483.975 170.5,484.5C 172.833,484.5 175.167,484.5 177.5,484.5C 178.833,485.5 180.167,486.5 181.5,487.5C 181.795,485.331 183.295,483.664 186,482.5C 188.331,484.055 190.331,483.721 192,481.5C 193.831,483.855 195.997,485.188 198.5,485.5C 199.719,484.737 200.719,483.737 201.5,482.5C 201.833,483.167 202.167,483.833 202.5,484.5C 205.188,482.881 208.021,481.547 211,480.5C 211.5,481 212,481.5 212.5,482C 210.063,483.279 209.563,484.779 211,486.5C 212.872,484.619 215.039,484.619 217.5,486.5C 216.313,486.554 214.98,486.887 213.5,487.5C 213.833,488.5 214.5,489.167 215.5,489.5C 216.795,488.902 218.128,488.402 219.5,488C 219.167,487.667 218.833,487.333 218.5,487C 219.891,485.35 221.391,484.85 223,485.5C 225.105,484.689 227.105,483.689 229,482.5C 230.285,482.95 231.452,483.617 232.5,484.5C 233.716,483.998 234.883,483.665 236,483.5C 239.16,486.286 241.993,485.952 244.5,482.5C 245.5,483 246.5,483.5 247.5,484C 245.314,484.604 245.148,485.77 247,487.5C 248.143,484.085 249.81,483.751 252,486.5C 252.667,483.833 253.333,483.833 254,486.5C 255.487,485.747 255.654,484.914 254.5,484C 256.609,482.859 258.442,481.359 260,479.5C 260.75,480.126 261.584,480.626 262.5,481C 258.721,482.11 258.554,483.61 262,485.5C 264.096,484.285 263.929,483.451 261.5,483C 264.608,480.919 266.274,481.419 266.5,484.5C 267.935,482.599 269.602,482.266 271.5,483.5C 271.296,482.471 271.796,481.471 273,480.5C 273.667,481.833 274.333,481.833 275,480.5C 275.667,481.167 276.333,481.833 277,482.5C 278.957,481.146 280.957,481.479 283,483.5C 284.583,481.007 286.083,481.174 287.5,484C 284.723,486.173 284.89,486.673 288,485.5C 289.101,487.394 290.434,488.061 292,487.5C 292.5,487 293,486.5 293.5,486C 288.3,485.717 287.633,484.217 291.5,481.5C 294.447,482.637 297.28,484.637 300,487.5C 300.5,487 301,486.5 301.5,486C 300.044,485.577 299.544,484.744 300,483.5C 300.333,483.833 300.667,484.167 301,484.5C 302.764,482.741 304.931,482.574 307.5,484C 305.616,484.216 303.949,484.883 302.5,486C 304.127,485.57 305.627,485.404 307,485.5C 307.915,486.328 308.581,487.328 309,488.5C 311.279,486.438 313.612,485.105 316,484.5C 316.833,485.5 317.667,486.5 318.5,487.5C 318.322,486.044 319.156,484.711 321,483.5C 322.487,484.253 322.654,485.086 321.5,486C 323.049,485.478 324.549,485.645 326,486.5C 326.5,486.333 327,486.167 327.5,486C 326.216,484.703 326.383,483.536 328,482.5C 330.629,486.097 332.796,486.431 334.5,483.5C 335.192,484.025 335.692,484.692 336,485.5C 336.741,484.359 337.575,484.359 338.5,485.5C 338.833,485.333 339.167,485.167 339.5,485C 338.672,484.085 337.672,483.419 336.5,483C 337.931,482.535 339.097,481.701 340,480.5C 341.788,481.358 343.622,482.358 345.5,483.5C 346.833,482.833 348.167,482.167 349.5,481.5C 351.703,481.587 353.87,481.587 356,481.5C 359.062,482.621 361.729,484.287 364,486.5C 365.762,486.056 365.595,485.556 363.5,485C 364.667,484.5 365.5,483.667 366,482.5C 366.667,484.5 367.333,486.5 368,488.5C 368.333,487.5 368.667,486.5 369,485.5C 369.656,489.002 370.989,489.002 373,485.5C 374.938,486.86 376.604,486.527 378,484.5C 379.049,485.517 380.216,485.684 381.5,485C 382.667,483.833 383.833,482.667 385,481.5C 385.667,482.167 386.333,482.833 387,483.5C 389.449,483.513 391.949,483.347 394.5,483C 394.64,484.264 394.64,485.431 394.5,486.5C 395.892,485.395 397.059,484.061 398,482.5C 398.689,483.357 399.522,484.023 400.5,484.5C 403.382,481.992 406.216,482.325 409,485.5C 410.019,484.313 411.186,483.313 412.5,482.5C 415.039,483.115 417.539,483.782 420,484.5C 420.849,481.479 422.349,480.979 424.5,483C 422.398,484.73 422.565,486.563 425,488.5C 426.824,487.251 426.657,486.085 424.5,485C 425.729,483.471 427.229,482.304 429,481.5C 430.487,482.253 430.654,483.086 429.5,484C 430.744,484.456 431.577,483.956 432,482.5C 432.333,483.167 432.667,483.833 433,484.5C 434,484.167 435,483.833 436,483.5C 437.204,484.471 437.704,485.471 437.5,486.5C 442.248,482.259 444.248,483.259 443.5,489.5C 444.269,491.801 445.269,491.967 446.5,490C 445.483,488.951 445.316,487.784 446,486.5C 446.718,487.451 447.551,487.617 448.5,487C 447.672,486.085 446.672,485.419 445.5,485C 446.931,484.535 448.097,483.701 449,482.5C 450.587,483.727 451.921,483.394 453,481.5C 453.667,482.833 454.333,484.167 455,485.5C 456.913,482.592 459.246,481.926 462,483.5C 462.333,482.833 462.667,482.167 463,481.5C 463.605,483.481 464.605,483.815 466,482.5C 467.844,483.711 468.678,485.044 468.5,486.5C 470.826,486.9 473.159,486.4 475.5,485C 473.099,484.195 473.266,483.362 476,482.5C 477.019,483.687 478.186,484.687 479.5,485.5C 480.192,484.975 480.692,484.308 481,483.5C 481.5,484.667 482.333,485.5 483.5,486C 482.833,486.333 482.167,486.667 481.5,487C 482.711,488.113 482.711,489.28 481.5,490.5C 483.187,491.568 484.854,491.401 486.5,490C 485.328,489.581 484.328,488.915 483.5,488C 485.09,486.954 486.59,485.787 488,484.5C 489.947,487.986 492.28,488.319 495,485.5C 496.049,486.517 497.216,486.684 498.5,486C 497.833,485.667 497.167,485.333 496.5,485C 498.01,484.15 499.51,483.317 501,482.5C 502.73,483.649 504.396,483.649 506,482.5C 507.7,484.299 509.533,484.632 511.5,483.5 Z"/></g>
</svg>
