<?xml version="1.0" standalone="no"?>
<!DOCTYPE svg PUBLIC "-//W3C//DTD SVG 20010904//EN"
 "http://www.w3.org/TR/2001/REC-SVG-20010904/DTD/svg10.dtd">
<svg version="1.0" xmlns="http://www.w3.org/2000/svg"
 width="512.000000pt" height="512.000000pt" viewBox="0 0 512.000000 512.000000"
 preserveAspectRatio="xMidYMid meet">

<g transform="translate(0.000000,512.000000) scale(0.100000,-0.100000)"
fill="#000000" stroke="none">
<path d="M0 2560 l0 -2560 2560 0 2560 0 0 2560 0 2560 -2560 0 -2560 0 0
-2560z m2463 1659 c104 -47 219 -106 342 -174 86 -48 275 -176 384 -258 495
-376 883 -867 1136 -1438 49 -111 56 -159 29 -212 -49 -97 -147 -140 -235
-103 -37 16 -99 77 -116 116 -134 292 -219 442 -353 629 -217 304 -467 554
-770 771 -188 135 -344 222 -632 353 -20 10 -52 35 -71 58 -76 88 -58 213 40
278 68 45 108 42 246 -20z m-168 -412 c174 -76 438 -228 572 -330 31 -23 68
-51 82 -61 57 -43 150 -124 230 -200 254 -243 447 -487 598 -756 93 -165 186
-364 181 -388 -3 -15 -91 -53 -673 -288 -115 -47 -229 -94 -252 -105 -24 -10
-45 -19 -48 -19 -7 0 -434 -174 -492 -201 -24 -10 -45 -19 -48 -19 -5 0 -457
-183 -520 -210 -20 -9 -350 -143 -730 -296 -115 -47 -218 -89 -229 -95 -25
-14 -41 2 -27 27 8 15 143 344 270 659 5 11 13 31 19 45 30 68 242 590 242
595 0 3 9 24 19 48 27 59 271 655 271 662 0 3 9 24 19 48 11 23 65 155 121
292 55 138 105 259 110 270 5 11 39 94 76 185 36 91 70 170 76 177 10 12 20 9
133 -40z"/>
<path d="M2335 3439 c-73 -25 -118 -58 -158 -115 -42 -60 -58 -108 -58 -184
-1 -124 79 -244 199 -297 48 -21 68 -24 132 -21 124 6 220 70 276 185 37 74
39 173 7 245 -71 157 -248 240 -398 187z"/>
<path d="M2745 2530 c-100 -21 -190 -88 -235 -177 -36 -69 -36 -196 0 -268 30
-63 103 -135 167 -165 71 -34 178 -33 254 3 62 29 126 92 160 159 35 67 33
184 -4 260 -64 130 -216 213 -342 188z"/>
<path d="M1652 2123 c-5 -10 -51 -119 -102 -243 -50 -124 -100 -244 -111 -268
-33 -72 -30 -83 26 -110 79 -38 145 -48 207 -33 117 30 201 97 250 199 26 54
31 76 31 138 0 62 -5 83 -32 138 -35 72 -96 132 -165 165 -70 32 -93 36 -104
14z"/>
</g>
</svg>
